<svg xmlns="http://www.w3.org/2000/svg" xmlns:xlink="http://www.w3.org/1999/xlink" width="1920" height="1079" viewBox="0 0 1920 1079"><defs><filter id="a" x="355.085" y="150.299" width="1210.32" height="839.485" filterUnits="userSpaceOnUse"><feOffset input="SourceAlpha"/><feGaussianBlur stdDeviation="9.5" result="b"/><feFlood flood-color="#fff" flood-opacity="0.471"/><feComposite operator="in" in2="b"/><feComposite in="SourceGraphic"/></filter><clipPath id="c"><rect width="1920" height="1079" transform="translate(0 1)" fill="#fff" stroke="#707070" stroke-width="1"/></clipPath><radialGradient id="d" cx="0.398" cy="-0.912" r="2.354" gradientTransform="translate(0.101 -0.151) scale(0.274 0.785)" gradientUnits="objectBoundingBox"><stop offset="0" stop-color="#83878b"/><stop offset="0.551" stop-color="#a0a0a2"/><stop offset="0.665" stop-color="#7c7d80"/><stop offset="0.881" stop-color="#3f4145"/><stop offset="0.984" stop-color="#272a2e"/></radialGradient><linearGradient id="e" y1="0.5" x2="1" y2="0.5" gradientUnits="objectBoundingBox"><stop offset="0.022" stop-color="#fff"/><stop offset="0.824" stop-color="#eae8e6"/><stop offset="1" stop-color="#e5e3e1"/></linearGradient><linearGradient id="f" x1="0.5" y1="-0.596" x2="0.5" y2="-0.234" gradientUnits="objectBoundingBox"><stop offset="0.022" stop-color="#848fa2"/><stop offset="0.561" stop-color="#83878b"/><stop offset="1" stop-color="#40494d"/></linearGradient><linearGradient id="g" x1="0.5" y1="-0.633" x2="0.5" y2="-0.263" gradientUnits="objectBoundingBox"><stop offset="0" stop-color="#848fa2"/><stop offset="0.022" stop-color="#62248b"/><stop offset="0.561" stop-color="#83878b"/><stop offset="1" stop-color="#5b376d"/></linearGradient><linearGradient id="h" x1="0.5" y1="-10.754" x2="0.5" y2="-6.667" xlink:href="#f"/><linearGradient id="i" x1="0.5" y1="-1.421" x2="0.5" y2="-0.558" xlink:href="#e"/><linearGradient id="j" x1="0.5" y1="-1.424" x2="0.5" y2="-0.609" xlink:href="#e"/><radialGradient id="k" cx="0.446" cy="-0.518" r="2.502" gradientTransform="translate(0.137 -0.071) scale(0.204 0.785)" gradientUnits="objectBoundingBox"><stop offset="0" stop-color="#83878b"/><stop offset="0.416" stop-color="#40494d"/><stop offset="0.531" stop-color="#3a4246"/><stop offset="0.984" stop-color="#272a2e"/></radialGradient><radialGradient id="l" cx="1.465" cy="-1.117" r="3.49" gradientTransform="translate(0.295 -0.184) scale(0.481 0.785)" xlink:href="#k"/><radialGradient id="m" cx="0.208" cy="-1.314" r="3.814" gradientTransform="translate(-0.147 -0.221) scale(0.191 0.785)" xlink:href="#k"/><linearGradient id="r" x1="0.5" y1="0" x2="0.5" y2="1" xlink:href="#e"/><radialGradient id="s" cx="0.523" cy="0.261" r="2.473" gradientTransform="translate(-0.537 0.127) scale(0.697 0.785)" xlink:href="#k"/><radialGradient id="t" cx="-0.809" cy="-0.759" r="2.529" gradientTransform="translate(3.961 -0.073) scale(1.739 0.785)" xlink:href="#k"/><linearGradient id="u" x1="0.5" y1="0.278" x2="0.5" y2="0.608" gradientUnits="objectBoundingBox"><stop offset="0" stop-color="#fff"/><stop offset="1" stop-color="#cae0ee"/></linearGradient><linearGradient id="v" x1="0" y1="0.5" x2="1" y2="0.5" xlink:href="#u"/><clipPath id="aa"><path d="M1693.862,732.252s32.741-13.915,73.667,28.648,35.2,54.023,35.2,54.023L1797,921.331s-9,54.023-85.126,68.756c-45.019,7.367-79.4,2.456-85.945-6.548s0-50.749,3.274-57.3,6.548-20.463,35.2-34.378,17.189-45.019,9-56.478-19.645-38.471-20.463-45.838,2.456-30.286,24.556-40.108c3.274-1.637,1.637-1.637,1.637-1.637s-4.093-4.093-9.822-3.274c.819-1.637,9-6.548,25.375-8.185C1697.135,735.526,1693.862,732.252,1693.862,732.252Z" transform="translate(-1623.122 -730.077)" fill="none"/></clipPath><radialGradient id="ab" cx="0.5" cy="0.5" r="0.5" gradientUnits="objectBoundingBox"><stop offset="0" stop-color="#485b7c"/><stop offset="1" stop-color="#1c2533"/></radialGradient><filter id="ac" x="281.094" y="74.884" width="1357.531" height="990.315" filterUnits="userSpaceOnUse"><feOffset input="SourceAlpha"/><feGaussianBlur stdDeviation="34" result="ad"/><feFlood flood-color="#fff" flood-opacity="0.62"/><feComposite operator="in" in2="ad"/><feComposite in="SourceGraphic"/></filter><clipPath id="ae"><g transform="matrix(1, 0, 0, 1, 0, 0)" filter="url(#a)"><path d="M37.513,0H1115.808c20.718,0,37.513,18.5,37.513,41.322v699.84c0,22.822-16.795,41.322-37.513,41.322H37.513C16.8,782.485,0,763.984,0,741.162V41.322C0,18.5,16.8,0,37.513,0Z" transform="translate(0 0)" fill="#192232"/></g></clipPath><filter id="af" x="517.47" y="166.231" width="234.866" height="63.77" filterUnits="userSpaceOnUse"><feOffset input="SourceAlpha"/><feGaussianBlur stdDeviation="5" result="ag"/><feFlood flood-opacity="0.439"/><feComposite operator="in" in2="ag"/></filter><filter id="ah" x="1125.781" y="164.117" width="91.315" height="67.076" filterUnits="userSpaceOnUse"><feOffset input="SourceAlpha"/><feGaussianBlur stdDeviation="5" result="ai"/><feFlood flood-opacity="0.439"/><feComposite operator="in" in2="ai"/></filter><linearGradient id="aj" x1="0.5" y1="0.087" x2="0.5" y2="1.012" xlink:href="#u"/><clipPath id="ak"><path d="M1297.767,860.065s-25.891,23.385-62.767,15.29c2.7-4.5,50.175-36.876,57.371-80.047s12.592-93.539,46.769-116.923c17.988-11.692,32.379-16.189,35.976-17.089s19.787-4.5,23.385-6.3c.9,1.8-2.7,8.994-2.7,8.994s9.893.9,12.592,0c.9,2.7-4.5,7.2-4.5,7.2s37.577,5.351,41.373,70.154c3.873,66.1,15.179,103.729,53.964,134.012-8.994,4.5-44.071-2.7-58.461-16.189-15.29,4.5-102.533.9-102.533.9Z" transform="translate(-1235 -655)" fill="none"/></clipPath><clipPath id="al"><path d="M1362.983,841.694s-9.894,5.4-15.29,4.5S1335.1,835.4,1336,831.8c-.9,0-8.994,9.893-16.189,8.994s-12.592-7.2-12.592-7.2-9.894,68.355,17.089,70.154S1362.983,860.582,1362.983,841.694Z" transform="translate(-1305.449 -831.801)" fill="none"/></clipPath></defs><g transform="translate(0 -1)" clip-path="url(#c)"><g transform="translate(7.035 269.416)"><path d="M1814.476,108.429c-30.106,9.413-51.5,30.954-74.815,47.739-18.633,13.412-38.206,25.41-64.928,22.966-27.238-2.5-51.6-14.392-78.745-16.623-29.651-2.414-57.707,4.656-86.632-3.5-20.552-5.787-35.954-18.482-50.385-30.783-19-16.169-38.266-28.955-66-34.742-61.394-12.786-123.919-8.5-186.494-12.17-22.7-1.343-44.134-4.383-64.787-12.321-18.411-7.08-35.186-16.26-52.173-25.188-16.613-8.7-33.944-17.593-53.254-22.1a133.545,133.545,0,0,0-66.777,1.586C916.042,38.35,869.151,65.648,814.312,78.141,761.078,90.23,703.987,76.8,649.875,75.536,591.733,74.2,529.582,83.029,476.025,61.043c-24.955-10.271-48.961-24.491-76.846-29.52-26.965-4.868-46.8,2.515-69.11,13.6-50.416,25.067-107.558,40.518-163.3,56.627-22.612,6.524-44.811,13.493-68.231,18.027-20.562,3.979-41.336,7.362-62.293,9.766-14.311,1.616-28.783,2.979-43.286,3.474V616.747h1920V94.845C1879.294,96.209,1845.916,98.6,1814.476,108.429Z" transform="translate(0 12.882)" fill="#57595c"/><path d="M1856.267,222.033c-29.7-4.353-59.5-8.443-89.52-11.241-27.965-2.606-55.98-3.929-83.8-7.332-23.622-2.868-46.891-7-69.17-13.957-9.584-2.969-18.058-6.857-27.177-10.594-3.949-1.646-8.322-3.575-12.877-4.009-9.5-.949-13.634,4.484-16.543,10.513-.3.707-1.565.818-2.262.424-41.266-24.43-68.766-63.434-116.334-81.188-11.836-4.4-24.289-7.544-36.125-11.937-12.8-4.716-25.4-9.857-38.509-14.008-15.25-4.838-29.369-7.524-45.881-5.746-11.523,1.242-22.956,3.474-34.56,4.333a143.476,143.476,0,0,1-38.589-2.454c-15.614-3.05-36.691-8.281-52.224-2.555-10.069,3.7-17.6,8.09-29.237,7.9-14.674-.222-31.742-6.554-45.72-1.414-40.125,14.816-47.82,56.92-87.541,72.654a1.462,1.462,0,0,1-1.687-.323c-11.473-14.634-27.975-28.672-33.257-45.75-2.141-6.989-2.141-13.24,1.656-19.875,3.858-6.706,12.533-15.725,10.463-23.471-3.444-12.957-21.825,5.928-26.753,10.019-5.221,4.343-10.746,8.847-17.442,11.816a63.494,63.494,0,0,1-27.258,5.5c-7.413-.182-14.937-2.232-22.319-1.858-12.584.667-23.966,5.837-35.2,9.958-3.464,1.273-7.009,2.737-10.928,2.656-3.616-.071-6.807-2.616-9.13-4.474-6.756-5.343-13.281-10.877-20.3-16.038C829.925,73.6,819.816,67.816,825.37,58.3a88.761,88.761,0,0,1,8.514-11.786c2.484-3.05-15.967,1.454-17.108,1.848-10,3.393-18.967,8.15-28.218,12.624-20.542,9.9-40.145,10.079-63.666,8.887-24.652-1.273-50.385-.424-74.6-4.514C595.207,56.1,545.306,29.984,488.73,25.985c-14.23-1.01-29.46-.98-43.266,2.323-15.381,3.656-26.551,12.473-37.367,21.32C387.5,66.443,367.7,83.45,344.27,97.9c-21.481,13.24-43.589,26.258-71.18,29.682-27.056,3.343-54.425,1.717-81.532-.495-.555-.061-1.313-.364-1.081-.9,4.06-9.322,12.846-16.543,22.855-22.249,6.514-3.676-5.989-1.626-7.857-1.262a71.267,71.267,0,0,0-10.978,2.909c-6.8,2.5-13.25,5.423-19.684,8.5-10.019,4.767-20.239,10.008-31.833,12.149-15.058,2.787-30.4,4.181-45.649,6.171-13.523,1.8-27.672,5.837-41.528,4.383-12.3-1.273-26.541-7.312-38.943-5.151-8.413,1.464-16.1,4.494-23.895,7.231V551.361h1920V229.88C1893.988,227.668,1875.214,224.78,1856.267,222.033Z" transform="translate(0 78.268)" fill="url(#d)" style="mix-blend-mode:multiply;isolation:isolate"/><path d="M-.693,151.62c12.513,3.09,27.672-.828,40.337-1.969,17.593-1.646,37.115-.97,52.7-8.564,9.6-4.646,18.32-9.887,30.1-7.251a1.011,1.011,0,0,1,.2,1.909c-.394.222-.8.424-1.172.616-16.957,9.079-35.206,17.835-50.628,28.47-2.707,1.848,4.252,3.434,6.161,3.7a90.857,90.857,0,0,0,15.472.535c12.584-.434,25.087-1.757,37.559-3.161,10.544-1.151,20.421-1.747,31.035-1.929,13.089-.212,25.824-1.01,37.549-5.969,15.482-6.524,28.642-16.119,44.609-21.946,18.29-6.635,38.125-10.089,56.506-16.593a1.043,1.043,0,0,1,1.222.434c3.807,7.191-5.959,17.027-10.857,22.451-7.14,7.908-15.149,15.8-24.42,22.309,15,4.252,30.338-3.3,41.5-10.8,13.472-9.11,24.824-19.956,35.721-30.9,20.34-20.38,44.195-39.6,78.754-42.7,36.287-3.252,72.957,6.544,108.578,10.412,12.675,1.374,25.4,2.464,38.206,2.747,10.746.2,21.471-.283,32.237.353,21.087,1.232,41.841,4.383,62.838,6.443A317.008,317.008,0,0,0,733.8,99.74c20.744-2.495,42.861-6.453,63.919-4.767,10.22.838,20.451,3.686,30.762,3.4A59.045,59.045,0,0,0,856.5,90.469c13.856-7.706,26.026-17.714,42.841-21.37a1.019,1.019,0,0,1,1.293.667c.061.192.131.384.182.555,1.353,6.453-4.009,13.331-8.12,18.542-6.676,8.413-14.371,16.24-21.885,24.2-3.646,3.9-7.373,7.756-10.554,11.857-1.333,1.747-4.757,5.312-3.939,7.544,1.939,5.06,28.8,1.293,33.277.858,10.826-1.081,23.844-1.5,34.105-4.636,7.948-2.394,14.826-7.484,23.259-8.928,5.908-.98,8.433,1.273,13.068,3.908,9.887,5.575,17.411-6.645,21-12.493,4.615-7.5,8.15-15.321,12.331-22.956,3.969-7.241,13.4-25.319,27.066-17.118,10.422,6.241,17.482,17.9,21.643,27.278,5.12,11.6,5.625,23.168,2.757,35.2-1.828,7.544-4.211,15.018-6.171,22.532-.727,2.767,12.543-.232,14.311-1.151,8.665-4.545,12.251-13.109,14.866-20.633,2.8-7.847,4.706-15.927,8.251-23.612,2.151-4.676,5.787-10.705,12.442-12.311,9.564-2.3,18.189,4.908,25.41,8.867,5.948,3.272,12.836,7.524,20.37,7.817a102.885,102.885,0,0,0,23.38-1.111c14.644-2.606,28.49-7.473,43.276-9.665,20.239-2.989,41-3.434,61.545-3.565,17.583-.1,34.54-.293,50.789,5.787,15.634,5.858,29.682,15.452,46.406,19.411,33.61,7.938,70.736-3.01,101.528,13.725,1.141.626.091,2.616-1.182,1.929-.182-.111-.384-.192-.545-.3,11.655,6.918,19.32,16.805,27.2,26.5,11.109,13.624,23.774,24.612,44.134,29.056-1.414-14.523,32.065-13.483,43.407-12.695,11.614.818,23.44,2.414,34.176,6.1a30.819,30.819,0,0,1,18.29,16.391c1.646,3.454,2.939,7.13,6.766,9.534,6.5,4.06,15.351,5.969,23.279,7.544,4.979,1,57.455,8.352,57.7,5.686.677-7.857,4.545-11.594,14.341-12.735,5.817-.687,11.4-2.343,13.038-7.383,1.687-5.231.839-10.715,1.939-16.028,3.373-15.805,30.924-2.434,39.65,2.1,19.371,10.029,36.772,22.289,53.839,34.6a172.247,172.247,0,0,0,21.411,13.755c3.181,1.677,17.26,9.423,15.432,1.424-3.05-13.4-14.281-25-17.825-38.357-.6-2.343-1.475-5.444.475-7.554,3.212-3.494,9.14-4.979,11.958-8.655,4.494-5.878-3.949-13.341-5.4-19.229-1.252-5.029-.081-9.625,4.07-13.664,4.858-4.787,11.5-8.079,16.826-12.513a174.472,174.472,0,0,0,19.451-18.926c3.242-3.737,6.312-7.524,9.321-11.382V94.276c-33.671,1.353-67.049,3.757-98.489,13.584-30.106,9.433-51.5,30.964-74.815,47.76-18.633,13.4-38.206,25.39-64.928,22.936-27.238-2.515-51.6-14.381-78.745-16.593-29.651-2.434-57.707,4.636-86.632-3.525-20.552-5.787-35.954-18.512-50.385-30.793-19-16.159-38.266-28.965-66-34.732-61.394-12.786-123.919-8.5-186.494-12.17-22.7-1.343-44.134-4.393-64.787-12.331-18.411-7.08-35.186-16.26-52.173-25.157-16.613-8.716-33.944-17.593-53.254-22.128a133.662,133.662,0,0,0-66.777,1.6C916.042,37.791,869.151,65.1,814.312,77.542c-53.234,12.129-110.325-1.3-164.437-2.565-58.142-1.353-120.293,7.484-173.849-14.513C451.07,50.2,427.064,35.973,399.179,30.933c-26.965-4.868-46.8,2.515-69.11,13.614-50.416,25.1-107.558,40.518-163.3,56.617-22.612,6.565-44.811,13.523-68.231,18.047-20.562,3.979-41.336,7.362-62.293,9.756-14.311,1.616-28.783,2.979-43.286,3.494v15.5A13.228,13.228,0,0,0-.693,151.62Z" transform="translate(0 7.694)" fill="url(#e)"/><path d="M15.716,126.591a258.042,258.042,0,0,0,36.115-2.959c21.5-2.969,42.548-7.352,63.737-11.382a528.519,528.519,0,0,0,52.86-12.665,399.86,399.86,0,0,1,54.617-12.594c20.613-3.111,41.013-5.878,60.333-12.594,18.563-6.453,36.65-13.806,55.455-19.825,17.159-5.423,34.863-9.9,53.466-10.513,17.724-.576,35.974,3.525,52.708,7.756,39.084,9.887,77.1,24.269,119.172,20,17.623-1.788,34.873-5.2,52.4-7.423-48.648.808-98.509,3.555-142.542-14.523-24.955-10.261-48.961-24.491-76.846-29.53-26.965-4.868-46.8,2.515-69.11,13.614-50.416,25.1-107.558,40.518-163.3,56.617-22.612,6.565-44.811,13.523-68.231,18.047-20.562,3.979-41.336,7.362-62.293,9.756-13.563,1.545-27.319,2.838-41.074,3.383C-1.494,126.309,8.414,126.591,15.716,126.591Z" transform="translate(1.993 18.291)" fill="#fff"/><path d="M157.21,96.283c11.372,3.3,23.481,4.06,35.348,5.656,12.917,1.727,24.592,4.3,35.832,9.655,12.422,5.858,24.087,13,37.337,17.674,14.23,5.029,30.116,6.474,42.3-2.7a26.49,26.49,0,0,0,10.069-13.937,14.536,14.536,0,0,1,6.514-8.11A56.857,56.857,0,0,1,343.7,97.5c6.009-1.141,12.574-1.646,18.088-3.929,13.22-5.545,20.693-17.664,27.652-27.622,4.625-6.6,9.524-13.351,17.775-17.613,12.038-6.241,26.248-7.059,39.913-9.716,16.977-3.3,33.54-7.726,50.406-11.331.384-.081.757-.151,1.141-.242V25.234c-33.671,1.353-67.049,3.757-98.489,13.584-30.106,9.433-51.5,30.964-74.815,47.76-18.633,13.4-38.206,25.39-64.928,22.936C233.207,107,208.847,95.131,181.7,92.92c-11.261-.919-22.34-.475-33.307-.01A61.532,61.532,0,0,0,157.21,96.283Z" transform="translate(1414.288 76.736)" fill="#fff"/><path d="M124.521,28.742c12.119,3.222,6.888,15.2,3.191,21.946-5.555,10.109-13.069,19.4-20.815,28.561,9.493.091,18.068-3.605,25.753-7.817,21.8-11.917,43.881-27.551,71.978-17.795,14.684,5.12,27.086,13.25,41.367,18.9,18.017,7.15,39.62,9.241,59.546,10.463,25.026,1.5,49.951.576,74.846-1.192-8-.273-15.977-.586-23.976-1.06-22.7-1.343-44.134-4.393-64.787-12.331-18.411-7.08-35.186-16.26-52.173-25.157-16.613-8.716-33.944-17.593-53.254-22.128a133.661,133.661,0,0,0-66.777,1.6C108.17,25.894,97.212,29.631,86.386,33.63,97.828,30.6,113.048,25.692,124.521,28.742Z" transform="translate(850.067 7.694)" fill="#fff"/><g transform="translate(-7.035 16.801)"><path d="M1845.33,240.619c-42.68-.05-85.42-5.969-126.787-13.725-42.851-8.029-85.4-18.159-125.949-31.742-28.116-9.443-54.193-21.5-80.552-33.641q-47.34-21.8-94.166-44.255-47.2-22.557-94.166-45.427c-28.723-13.937-57.819-29.813-93.449-26.49-30.318,2.808-57.011,15.5-82.37,28.1-14.008,6.969-28.056,15.664-43.134,21.148-13.947,5.05-27.834,10.18-41.6,15.543-29.076,11.382-57.839,23.531-84.663,37.9-25.228,13.533-48.214,29.288-72.17,44.1-12.665,7.817-27.107,16.825-43.791,17.957-20.562,1.363-39.3-7.191-55.93-15.634-41.145-20.885-75.977-49.376-112.426-74.826C624.061,70.718,515.231-5.027,415.6,38.087c-49.537,21.411-86.248,55.9-130.907,82.451-21.249,12.644-44.487,23.43-70.645,28.409-26.48,5.029-53.678,5.353-80.764,6.706-25.652,1.273-46.861,11.634-69.312,20.552-10.736,4.262-21.562,8.574-32.924,11.655-7.1,1.929-16.906,4.908-24.642,3.979a82.892,82.892,0,0,1-13.442-2.787V561.878h1920V236.539C1890.524,238.932,1868.013,240.679,1845.33,240.619Z" transform="translate(7.035 60.535)" fill="url(#f)" style="mix-blend-mode:multiply;isolation:isolate"/><path d="M1908.966,295.922c-16.4-.909-37.277-9.049-52.3-.889,2.1,2.03,3.949,4.191,6.221,6.12.626.525.485,2.262-.848,1.767-22.441-8.564-47-10.907-71.453-13.4a347.389,347.389,0,0,1-63.848-12.725c-18.2-5.4-36.428-12.008-55.4-15.6-21.825-4.151-44.235-5.373-66.595-5.615-17.906-.2-36.378,1.343-54.112-1.03-13.22-1.777-25.238-6.625-36.842-11.655-15.977-6.938-32.752-10.534-49.921-15.058-14.674-3.878-29.015-8.807-39.539-18.017-21.057-18.421-30.429-44.578-56.516-59.354,2.444,5.191,3.747,10.614,5.868,15.906a.939.939,0,0,1-.909,1.313c-15.947-.263-30.8-6.251-44.77-11.695-7.746-3.01-15.371-6.161-23.37-8.726-7.049-2.272-14.5-3.787-21.36-6.453-10.493-4.04-18.1-9.736-25.834-16.5a115.764,115.764,0,0,0-15.583-11.867c-1.05-.656-3.323,11.028-3.424,12.311-.283,3.878-.384,7.776-.384,11.7a1,1,0,0,1-1.535.869c-8.776-5.141-18.28-10.17-23.2-18.128-2.434-3.9-4.444-7.827-4.04-12.25.606-6.029,2.888-10.938-1.424-16.26-7.181,10.766-14.876,22.572-27,30.4-11.109,7.16-24.844,9.17-38.943,7.787-21.592-2.121-41.9-9.019-63.04-12.806a159.927,159.927,0,0,0-56.97.212c-14.826,6.514-29.389,13.4-43.4,20.906-25.228,13.533-48.214,29.288-72.17,44.1-12.665,7.817-27.107,16.825-43.791,17.957-20.562,1.363-39.3-7.191-55.93-15.634-41.145-20.885-75.977-49.376-112.426-74.826-39.61-27.612-91.55-63.787-147.187-82.279-8.3,4.565-16.684,9.079-24.966,13.735-17.149,9.675-35.408,18.1-52.678,27.652C455.19,75.7,441.6,83.887,426.771,90.967c-29.238,13.957-61.182,26.289-85.662,45.447-22.754,17.805-33.186,43.568-62.878,55.627a.962.962,0,0,1-1.394-.808v-7.11c-5.4,2.636-10.736,5.443-15.745,8.514-4.827,2.979-14.694,7.625-14.907,13.048-.151,3.676.1,6.938-2.07,10.251-1.606,2.454-6.615,4.757-9.4,6.322-8.786,4.9-18.249,8.887-27.5,13.2-10.6,4.979-19.724,11.018-29.591,16.785-40.054,23.35-86.662,38.468-134.361,49.244a.92.92,0,0,1-.99-1.4c7.08-8.968,16.028-16.846,25.066-24.592,8.948-7.706,17.27-15.927,26.359-23.461,7.191-5.959,15.836-10.715,23.531-16.23,7.231-5.221,15.927-11.685,16.573-19.795-41.1,26.309-89.207,43.74-140.835,52.688V551.021h1920V296.033C1911.632,295.993,1910.3,295.963,1908.966,295.922Z" transform="translate(7.035 71.392)" fill="url(#g)" style="mix-blend-mode:multiply;isolation:isolate"/><path d="M31.686,44.221C20.1,50.513,6.761,57.784-7.035,60.37V91.728C-3.308,82.76.035,73.66,6.225,65.44,12.75,56.795,23.233,51.331,31.686,44.221Z" transform="translate(7.035 232.704)" fill="url(#h)" style="mix-blend-mode:multiply;isolation:isolate"/><g transform="translate(0 85.835)" opacity="0.9" style="mix-blend-mode:screen;isolation:isolate"><path d="M43.239,198.858c18.441-6.878,35.085-16.421,53.708-22.905a1.435,1.435,0,0,1,1.454.1c4.807,4.9-1.5,11.523-5.464,15.361-7.2,6.948-15.755,12.9-23.895,19.158C60.7,217,55.53,225.581,46.673,231.58c-5.019,3.393-10.806,5.858-16.6,8.332-7.564,3.272-16.169,4.959-22.521,9.655,13.5,2.515,28.9-.434,41.811-3.464,14.755-3.454,30.439-7.968,42.942-15.27,11.463-6.716,20.835-16.351,34.176-20.875,15.018-5.1,31.914.889,47.063,2.565a.735.735,0,0,1,.586,1.141c-1.666,3.121-2.272,6.595-4.393,9.5,9.716-.535,19.593-3.717,28.076-7.2,7.595-3.08,16.078-6.817,21.188-12.4a26.009,26.009,0,0,1-10.433-2.434c-2.747-1.424-5.019-3.474-7.888-4.716-4.787-2.111-11.735-2.666-17.038-3.616q-9.68-1.7-19.431-3.232a.749.749,0,0,1-.6-1.151c19.906-28.642,72.069-19.128,105.861-21.239.818-.061,1.3.626.929,1.161-2.151,3.01-2.9,6.423-4.706,9.524,9.827-.545,20.906-3.737,27.6-9.3,4.191-3.5,6.474-7.009,6.13-11.867a35.9,35.9,0,0,1-.1-8.393c2.555-15.422,17.391-28.389,31.217-38.69,16.108-11.968,33.318-24.067,51.113-34.449C401,63.9,421.943,54.822,443.243,46.086,450.928,42.9,465.6,36.1,474.631,40.6c6.272,3.121,5.544,9.675,3.555,14.543-3.777,9.14-11.443,16.724-20.249,23.218-14.472,10.655-29.48,20.916-43.265,32.146a293.484,293.484,0,0,0-30.712,29.005c-4.383,4.8-21.5,19.774-10.554,24.824,10.17,4.7,26.117-1.909,35.62-5.12,11.443-3.9,22.38-7.423,35-8.251,18.876-1.242,36.8,2.414,54.87,6.272,20.38,4.353,41,6.544,62.03,7.867,19.128,1.2,38.418,1.969,57.324,4.686a221.772,221.772,0,0,1,55.183,15.068c33.449,14.089,74.927,30.621,111.183,12.089,4.494-2.282,8.847-4.7,13.19-7.15-37.357-20.34-69.8-46.558-103.629-70.17C624.061,70.718,515.231-5.027,415.6,38.087c-49.537,21.411-86.248,55.9-130.907,82.451-21.249,12.644-44.487,23.43-70.645,28.409-26.48,5.029-53.678,5.353-80.764,6.706-25.652,1.273-46.861,11.634-69.312,20.552-10.736,4.262-21.562,8.574-32.924,11.655-7.1,1.929-16.906,4.908-24.642,3.979a82.892,82.892,0,0,1-13.442-2.787v11.321C7.286,208.907,26.737,204.968,43.239,198.858Z" transform="translate(7.035 -25.3)" fill="url(#i)"/><path d="M105.45,111.662a163.075,163.075,0,0,0,23.117-6.958c12.958-4.8,25.9-11.079,40.084-13.351,1.03-.162,2,.606,1.252,1.313-2.06,1.979-3.616,4.2-5.544,6.252,8.11-.111,14.856-2.939,22.471-4.928a52.674,52.674,0,0,1,19.421-1.323c15.5,1.717,33.116,6.5,47.305-1.262,8.958-4.918,13.018-12.665,18.128-19.916,4.908-6.979,10.948-12.856,20.077-16.644a2.008,2.008,0,0,1,1.939.091c6.282,4.524,8.807.949,14.442-1.293a11.078,11.078,0,0,1,8.665.05c8.817,3.373,14.008,12.614,19.179,18.7,5.918,6.958,14.866,13.361,22.481,19.2,6.777,5.2,17.815,14.664,28.551,13.967-2.787-5.312-4.222-11.493,4.434-13.493,9.312-2.181,20.3,1.687,28.935-2.616,2.636-1.333,4.767-2.787,8.14-2.495a65.832,65.832,0,0,1,17.25,3.7c12.584,4.646,21.582,12.745,30.086,21.168,4.524,4.454,8.857,9.493,14.533,13.1,5.908,3.767,12.543,6.756,18.492,10.483,13.19,8.2,13.361,20.047,17.543,31.954,4.424,12.473,12.543,22.077,27.147,28.46,11.766,5.161,24.46,8.746,36.378,13.614.606-5.029-5.656-7.938-10.059-11.14-4.222-3.09-7.322-6.4-8.11-10.948-.141-.8,1.1-1.121,1.889-.99,48.224,8.3,97.681,11.261,143.663,26.379,11.271,3.706,22.683,7.706,34.711,9.726,13.058,2.2,25.784,1.363,39.034,1.081,23.541-.495,47.2.454,68.928,8.241a.677.677,0,0,1,.232,1.192,30.635,30.635,0,0,1-17.361,7.7c12.786,8.17,29.5,12.907,44.992,16.634,19.31,4.636,38.387,7.5,58.657,6.3,15.906-.949,30.914.182,46.376,2.111V218.886c-22.441,2.394-44.952,4.141-67.635,4.08-42.68-.05-85.42-5.969-126.787-13.725-42.851-8.029-85.4-18.159-125.948-31.742-28.116-9.443-54.193-21.5-80.552-33.641q-47.34-21.8-94.166-44.255-47.2-22.557-94.166-45.427C374.93,40.239,345.833,24.363,310.2,27.686c-30.318,2.808-57.011,15.5-82.37,28.1C213.825,62.751,199.777,71.446,184.7,76.93c-13.947,5.05-27.834,10.18-41.6,15.543-16.543,6.484-32.964,13.21-49.022,20.451A57.761,57.761,0,0,0,105.45,111.662Z" transform="translate(927.094 -7.647)" fill="url(#j)"/></g><path d="M1784.3,396.224c-51.739-18.33-102.357-38.993-155.388-54.991-21.774-6.564-47.79-15.038-71.594-11.756-15.28,2.091-28.965,8.069-44.508,9.817-24.713,2.727-47.2-.3-69.4-9.4-24.885-10.2-47.7-23.743-70.5-36.549-44.073-24.764-87-52.365-136.714-70.039-25.551-9.069-52.8-15.624-80.9-17.179-29.682-1.636-58.515,2.878-88.005,4.555-43.861,2.495-88.349-.768-129.231-14.119-40.266-13.159-80.158-33.843-111.91-57.3-24.5-18.148-47.144-37.913-70.635-56.849C730.467,62.25,705.33,40.7,676.2,24.115c-10.715-6.1-19.6-9.594-32.863-5.625-16.775,5.04-31.106,14.755-43.851,24.42-29.51,22.35-54.385,48.063-80.714,72.634-29.1,27.167-64.343,49.4-99.65,71.352-23.471,14.614-47.2,29.177-68.514,45.7-20,15.513-36.2,32.732-51.941,50.931-11.311,13.109-22.511,26.5-36.337,38.1-14.826,12.473-32,22.451-50.941,30.762-23.228,10.2-47.144,19.795-70.9,29.339-19.835,7.948-40.044,15.593-61.121,21.33-28.137,7.655-57.091,11.594-86.41,13.483v222.67h1920V433.46C1868.477,424.845,1825.182,410.727,1784.3,396.224Z" transform="translate(7.035 -16.801)" fill="#40494d"/><path d="M1784.3,188.294c-51.739-18.33-102.357-38.993-155.388-54.991-21.774-6.564-47.79-15.038-71.594-11.756-15.28,2.091-28.965,8.069-44.508,9.817-24.713,2.727-47.2-.3-69.4-9.4-24.885-10.2-47.7-23.743-70.5-36.549-24.208-13.6-48.123-28.086-72.988-41.3a170.826,170.826,0,0,1,13.9,10.968c8.463,7.514,17.623,16.846,19.885,26.955,1.05,4.6.757,9.756,2.777,14.159,2.454,5.292,12.8,7.433,18.926,8.716a373.311,373.311,0,0,1,47.386,12.846c16.4,5.726,32.54,12.119,49.638,16.482,18.209,4.636,37.953,7.494,57.041,4.8,17.017-2.4,34.1-7.372,51.537-7.231,15.977.121,27.51,5.514,38.569,14.24,6.383,5,12.382,10.544,19.683,14.694,7.868,4.464,17.209,6.736,26.278,9.221,9.231,2.545,18.583,5.141,27.087,9.079,8.412,3.858,16.229,8.514,24.4,12.695,17.058,8.7,34.943,17.007,54.93,20.724,1.161.212,1.242,2.111-.151,2.06-45.073-1.091-90.348-4.939-135.4-1.858-10.625.707-20.643,1.646-30.52,4.949-7.5,2.515-14.886,5.585-22.825,7.251-15.785,3.313-32.974,3.272-49.113,1.767a295.454,295.454,0,0,1-51.5-9.342c-15.291-4.222-31.783-9.16-44.942-16.735a144.148,144.148,0,0,1-19.057-13.634c-6.07-4.848-12.806-10.736-20.986-13.442-19.754-6.524-39.367-1.4-59.556.465-16.391,1.525-30.631-2.04-44.881-8.16-13.119-5.666-26.874-12.553-42.2-12.17,11.22,3.383,21.148,7.352,28.652,15.381,10.423,11.19,19.3,21.229,34.8,28.46a1.047,1.047,0,0,1,.131,1.838c-17.31,11.645-39.307,2.363-58.808.354-22.592-2.323-47.487-1.353-68.544-8.908-19.36-6.938-33.116-21.259-52.981-27.258-20.633-6.221-42.9-3.737-64.524-3.05,17.714,3.656,38.094,1.121,53.951,8.645,16.341,7.776,26.127,20.633,39.337,31.076,16.957,13.392,40.71,19.269,61.434,28.147,19.714,8.453,36.186,20.391,52.951,31.944a2.578,2.578,0,0,1,.384.263c.3.212.606.4.909.616,1.04.737.313,2.7-.949,1.808-.616-.4-1.222-.838-1.828-1.252-48.891-7.817-94.065-27.4-143.875-31.995-19.3-1.808-37.842-.576-56.748-5.009a185.271,185.271,0,0,1-45.528-16.694,168.7,168.7,0,0,1-37.256-26.662c-11.443-10.958-20.29-23.632-32.974-33.722-14.977-11.917-34.338-17.381-53.668-23.562-17.037-5.433-32.388-11.826-46.568-21.138-28.177-18.472-50.365-41.518-74.179-63.242,10.18,46.214,68.322,74.674,116.637,95.7,23.531,10.21,47.093,20.007,66.282,35.125,17.785,14.068,32.429,32.742,24.047,53.112-.343.747-1.737.454-2.283.071-26.531-18.835-53.143-37.529-85.723-49.83-16.088-6.09-33.792-10.756-48.487-18.9-12.473-6.918-18.886-18.775-32.7-24.218-1.687,20.764,13.836,40.811,8.281,61.555-.162.667-1.485.515-2,.283-7.928-3.8-17.138-3.575-25.43-6.464a138.355,138.355,0,0,1-27.6-12.967c-17.28-10.887-31.035-24.44-45.689-37.337-1.515,9.877,2.373,19.936-2.4,29.5-.374.778-1.7.495-2.292.111-11.382-7.686-22.764-15.4-33.621-23.531-9.675-7.251-21.077-14.866-28.2-23.834-10.281-13-4.333-28.066-4.312-42.5C625.5,99.581,608.6,127.577,576.574,138.767c-19.774,6.888-43.255,4.585-62.4,12.473-17.694,7.261-25.309,24.036-41.852,32.722-.828.465-2.717-.232-2.181-1.121,10.534-18.128,21.7-35.449,39.236-50.123,10.251-8.564,20.31-16.886,29-26.5,8.493-9.423,16.179-19.269,23.7-29.217-35.822,8.776-64.393,29.571-95.247,45.457-.848.475-2.2-.1-2.252-.889-.677-11.382,11.8-16.421,18.037-25.238-26.349,6.12-52.092,14.856-74.806,27.086-11.321,6.08-21.421,13.291-32.388,19.694s-22.249,12.432-33.7,18.27c-21.663,11.039-43.427,20.936-69.493,23.754-23.935,2.606-47.941.242-71.766-2.1-.929-.091-1.6-.788-1.091-1.464,2.343-3.04,3.828-6.14,6.282-8.867-43.508,13.887-81.017,44.265-129.6,46.083a443.106,443.106,0,0,1-55.89-1.535,174.164,174.164,0,0,1-22.976-3.181c-1.353-.313-2.8-.636-4.211-1.04V431.283h1920V225.53C1868.477,216.915,1825.182,202.8,1784.3,188.294Z" transform="translate(7.035 191.13)" opacity="0.4" fill="url(#k)" style="mix-blend-mode:multiply;isolation:isolate"/><path d="M519.967,278.683c4.161-17.29,9.685-34.772,11.574-52.355,1.5-14.321,5.646-28.329,10.675-42.134,5.534-15.2,13.472-30.853,15.745-46.639,2.131-15.149,1.707-30.419,3.979-45.548.98-6.6,2.192-13.361,5.373-19.562,2.636-5.181,6.534-9.877,9.635-14.876-36.964,27.551-54.415,66.039-85.309,97.357a1.1,1.1,0,0,1-1,.333c-21.885-6.181-40.256-25.854-44.417-43.518-5.262-22.249,14.594-41.134,23.592-61.111-27.844,17.391-48.032,40.306-55.082,68.079a.931.931,0,0,1-1.111.566,142.333,142.333,0,0,0-25.824-2.05c-33.762.636-64.282,13.079-97.448,16.29-17.987,1.747-35.4.727-52.617-3.838-14.583-3.858-28.036-9.8-42.377-14.189-5.969-1.818-13.331-6.645-20.148-5.656-7.14,1.02-13.573,4.908-19.956,7.453a239.292,239.292,0,0,1-55.465,14.533c-35.358,4.908-71.241,3.585-106.82,1.222v198.34h516.64C511.282,313.678,515.766,296.074,519.967,278.683Z" transform="translate(7.035 291.031)" opacity="0.4" fill="url(#l)" style="mix-blend-mode:multiply;isolation:isolate"/><path d="M1372.783,116.126c-7.261.293-14.563.757-21.754,1.727-1.646.242-9.18.252-7.9,2.878a11.281,11.281,0,0,1,1.2,2.9,1.274,1.274,0,0,1-1.374,1.485c-4.938-.01-9.9-.141-14.846-.475-42.063-2.878-81.9-15.139-123.757-18.906-42.508-3.838-82.572,2.3-123.454,10.988a435.475,435.475,0,0,1-61.717,8.554c-19.583,1.273-40.094,2.515-59.606.242-35.984-4.211-69-18.34-105.447-20.37,1.737,3.232,1.99,7.3,5.827,9.433.848.465.141,1.788-.778,1.889-39.811,3.848-77.027-11.251-116.334-12.786,44.215,23.481,96.64,37.064,133.614,68.463.778.656.121,1.929-1.091,1.909-37.489-1.252-75.179-1.333-112.617-4.221-16.755-1.273-33.156-3.121-49.143-7.453-16.068-4.333-31.449-10-46.992-15.381-16.189-5.6-32.661-10.877-49.951-14-15.3-2.757-30.884-4.2-46.457-5.484-29.561-2.444-60.283-4.181-87.874-13.483-4.272,21.2-56.011,7.534-70.978,4.03-20.38-4.757-40.347-10.574-60.273-16.472-12.755-3.737-25.824-8.433-39.226-10.766-4.04,31.358-56.647,2.545-74.715-9.059,2.282,15.906,19.118,28.359,20.532,44.548,1.464,16.533-9.928,32.1-3.848,48.517,3.171,8.423,7.473,16.5,11.746,24.592,7.706,7.8,15.321,15.674,22.693,23.632,1.01,1.111-1.555,1.515-2.363.636q-8.362-9.044-17.027-17.916a144.735,144.735,0,0,1,7.665,17.381c5.878,16.987,6.191,34.338,6.191,51.809,0,1.171-2.282,1.838-2.282.414,0-18.482-.091-37.226-7.524-54.991-2.818-6.746-5.858-13.321-9.21-19.845-40.7-41.3-84.622-81-114.395-128-10.887,9.413-10.816,24.37-11.756,36.307-.9,11.554-1.192,24.238-8.857,34.5-.475.616-1.979.263-2.333-.242-5.4-8.13-4.353-16.5-7.13-25.127-2.6-8.059-6.6-14.644-11.857-21.855-4.666-6.383-6.655-13.008-5.635-20.411,1-7.706,3.222-15.149,1.687-22.723-2.909,6.181-6.292,12.19-9.594,18.249-4.292,7.968-8.746,16.209-10.22,24.844a123.214,123.214,0,0,0-1.767,21.269c-.05,13.664,0,27.581-8.615,39.9-14.8,21.1-24.8,42.437-23.047,66.767.788,10.968,4.07,21.986,4.07,32.934,0,8.827-1.182,17.633-2.121,26.43-.879,8.8-1.818,17.644-1.717,26.48H1394V116.035C1386.932,115.853,1379.823,115.823,1372.783,116.126Z" transform="translate(525.998 312.542)" opacity="0.4" fill="url(#m)" style="mix-blend-mode:multiply;isolation:isolate"/><path d="M26.82,404.576c34.812-3.8,66.878-14.725,96.307-29.561,13.765-6.948,26.581-15.038,40.64-21.613,12.119-5.666,24.834-10.412,37.277-15.624,13.725-5.767,27.349-12.281,37.711-21.623,6.08-5.494,11.746-11.756,15.29-18.522a149.616,149.616,0,0,1,8.564-15.058c4.5-6.555,10.362-11.432,18.179-15.614,5.686-3.01,11.453-6.029,17.391-8.776,6.13-2.838,13.674-5.484,18.593-9.655,6.746-5.716,5.2-12.382,8.231-19.088,2.383-5.151,7.888-9.211,13.089-12.715,7.12-4.777,14.967-8.938,21.946-13.876,7.433-5.3,11.978-11.533,18.027-17.684,10-10.16,25.319-15.008,39.549-20.754,15.715-6.352,29.742-13.806,40.1-25.3.586-.656,1.848-.222,2.333.283,5.918,6.019,7.837,12.917,2.383,19.643-5.656,6.979-15.412,11.594-20.724,18.623-14.563,19.219-25.117,40.993-46.1,56.677-17.745,13.25-36.661,25.279-53.173,39.539-15.593,13.472-32.055,29-37.559,47.144,12.967-3.171,22.35-10.069,31.237-18.058,9.039-8.14,18.017-15.6,30.217-20.875,8.11-3.515,16.6-6.383,25.1-9.3,7.433-2.565,14.492-5.757,22.057-8.039a115.994,115.994,0,0,1,32.813-4.626c15.169-.151,32.055,1.495,46.386-3.02,15.29-4.807,29.349-13.594,38.317-24.511,10.18-12.382,10.18-24.774,6.332-38.892-2.737-10.029-7.039-19.976-5.05-30.359,1.242-6.777,4.393-12.937,7.12-19.4,2.444-5.736,4.494-11.574,6.767-17.351,4.4-11.251,9.17-23.39,19.734-32.1a1.788,1.788,0,0,1,2.1.061c13.452,12.786,3.706,30.056,4.625,44.841.636,9.776,7.13,16.805,12.1,25.4a30.1,30.1,0,0,1,2.929,6.09c.768,2.434.848,2.787,4.1,1.555a13.368,13.368,0,0,0,7.312-6.251c2.111-3.919,3.161-12.372,10.029-13.2,8.12-.939,15.442,4.11,19.381,9.12,13.311,17.038,16.018,45.2,44.588,51.4a45.815,45.815,0,0,0,16.472.808c5.423-.858,5.5-3.888,6.6-7.2,1.141-3.545,2.111-6.342,7.049-7.332a20.873,20.873,0,0,1,6.039-.3c3.929.313,7.676-.242,11.544-.212,8.281.081,16.462,1,24.7,1.283,6.655.222,11.342-1.475,17.482-2.737,3.706-.778,7.241-.929,10.958-1.444a91.515,91.515,0,0,1,24.248-.151c17.633,2.414,33.984,8.554,48.961,16.078,16.007,8.009,30.591,17.553,46.305,25.915,4.737,2.515,10.089,5.746,15.856,6.5,4.656.616,9.221-.242,13.674-1.3,7.807-1.878,15.674-3.767,23.35-5.908,5.353-1.5,10.917-2.7,16.654-2.192,17.179,1.5,33.59,4.646,51.153,3.737,19.1-.99,36.64-6.009,55.041-9.736a413.739,413.739,0,0,1,60.949-7.938c12.331-.616,24.652-.646,36.883-.172-23.733-7.958-48.81-13.634-74.664-15.078-29.682-1.636-58.515,2.878-88.005,4.555-43.861,2.495-88.349-.768-129.231-14.119-40.266-13.159-80.158-33.843-111.91-57.3-24.5-18.148-47.144-37.913-70.635-56.849C667.5,62.25,642.363,40.7,613.236,24.115c-10.715-6.1-19.6-9.594-32.863-5.625-16.775,5.04-31.106,14.755-43.851,24.42-29.51,22.35-54.385,48.063-80.714,72.634-29.1,27.167-64.343,49.4-99.65,71.352-23.471,14.614-47.2,29.177-68.514,45.7-20,15.513-36.2,32.732-51.941,50.931-11.311,13.109-22.511,26.5-36.337,38.1-14.826,12.473-32,22.451-50.941,30.762-23.228,10.2-47.144,19.795-70.9,29.339-19.835,7.948-40.044,15.593-61.121,21.33-5.494,1.485-10.988,2.787-16.522,4.02C8.873,406.394,17.892,405.566,26.82,404.576Z" transform="translate(70.002 -16.801)" fill="url(#e)"/><path d="M82.415,130.224c13.089-9.039,23.683-20.077,35.64-29.995a310.377,310.377,0,0,1,40.518-28.248c14.856-8.857,24.41-21.552,33.4-34.115,3.919-5.514,7.534-11.412,12.261-16.512,1.363-1.464,2.606-2.787,3.676-4.06-12.967,5.393-24.43,13.26-34.822,21.128-29.51,22.35-54.385,48.063-80.714,72.634C76.406,125.983,58.52,139.385,39.826,152.1,54.965,145.949,69.528,139.112,82.415,130.224Z" transform="translate(433.438 -12.313)" fill="#fff"/><path d="M183.2,109.882c-17.229-9.584-26.218-25.137-42.447-35.368-15.088-9.544-33.429-15.906-47.265-26.723C87.074,42.762,83.438,36.409,78.752,30.41c-2.9-3.7-6.2-7.443-10.725-10.029-6.181-3.535-4.878,4.636-4.03,7.241.222.606-.434.848-1.161.808-.353,8.12-3.828,16.462-4.08,24.481-.2,7.484,2.08,14.967,3.939,22.319,2.232,8.928,4.555,17.886,7.09,26.783.9,3.171,1.757,6.363,2.838,9.5,1.646,4.807,6.514-1.374,8.554-3.363,2.9-2.858,6.363-3.161,11-2.878,9.049.545,17.957,1.949,27,2.444,14.26.757,29.732-2.03,43.286,2.484,23.016,7.665,36.428,27.177,63.2,27.662C216.91,124.314,198.3,118.284,183.2,109.882Z" transform="translate(605.567 7.838)" fill="#fff"/><path d="M265.062,156.329c-7.908-8.15-12.695-18.138-18.472-27.248-5.08-8-11.21-15.684-22.36-18.967-14.553-4.252-30.207-1.939-45.154-4.565-14.7-2.616-28.571-8.433-40.852-15.169C112.158,76.059,90.7,57.457,69.529,38.995c.667,1.111,1.485,2.161,2.252,3.313a.877.877,0,0,1-.1,1.2c12.786,19.785,27.147,39.347,46.8,55.425a172.139,172.139,0,0,0,33.611,21.633c12.059,5.9,24.9,10.079,37.8,14.594,23.784,8.281,47.265,17.936,67.918,30.439,18.2,11.008,35.5,24.642,42.6,42.195a6.718,6.718,0,0,0,1.252-1.848c3.555-9.211-7.978-20.774-14.361-27.6C280.231,170.781,272.263,163.812,265.062,156.329Z" transform="translate(703.715 185.151)" fill="url(#e)"/><path d="M154.424,48.766c.212,4.312,5.322,8.423,9.766,11.3,15.462,9.948,34.348,16.694,52.314,23.319,21.612,7.918,43.265,15.331,65.443,22.229,44.184,13.7,88.763,26.824,133.765,38.862,9.322,2.474,18.643,4.928,28.086,7.282V142.6c-44.487-8.615-87.783-22.734-128.665-37.236C263.4,87.032,212.778,66.369,159.746,50.372,158,49.857,156.232,49.321,154.424,48.766Z" transform="translate(1476.2 274.061)" fill="url(#e)"/><path d="M382.923,110.77c-12.19,3.717-24.36,4.05-37.317,3.777-28.167-.606-60.374-2.1-85.794-12.685C246.3,96.237,234.777,88.47,223.637,80.34c-12.119-8.887-24.2-18.563-39.327-24.248-20.592-7.665-43.528-7.857-65.827-10.281,9.372,2.484,18.654,5.09,28.1,7.484,11.473,2.909,22.713,5.948,33.055,10.978a144.02,144.02,0,0,1,31.3,20.693c.757.656.555,2.272-.949,1.858-4.191-1.192-9.1-.394-13.6-.061,7.463,6.878,14.6,14,22.521,20.592,7.524,6.251,15.907,13.018,26.188,16.391,19.461,6.383,40.973-.2,61.121-.353,23.249-.151,47.527,4.424,70.513.576,19.189-3.222,33.59-14.452,51.739-19.583C412.545,99.671,398.143,106.175,382.923,110.77Z" transform="translate(1149.162 247.172)" fill="url(#e)"/><path d="M1905.562,71.3c-36.943-2.394-73.755-6.393-110.9-7.373-44.811-1.161-89.944.03-134.785.424-46.861.4-93.732.919-140.613,1.131-131.1.555-262.168-1.222-393.237.858-65.009,1.01-129.847,3.9-194.785,5.08-66.342,1.2-132.735,1.131-199.078.172C599.9,69.656,468.006,63.839,335.907,59.567c-62.858-2.02-125.221-1.515-188.019.99-51.506,2.03-103.508-2.878-154.923-.121V242.9h1920V71.767C1910.46,71.616,1908.006,71.464,1905.562,71.3Z" transform="translate(7.035 360.99)"/><path d="M102.078,37.98c10.978-.818,21.956-1.575,32.954-2.434C124.014,36.051,113.056,37.02,102.078,37.98Z" transform="translate(999.888 153.768)" fill="#dedede"/><path d="M164.474,83.886a26.669,26.669,0,0,0,.222-6.746c-.677-6.514-7.322-13.493-11.342-19.33a8.289,8.289,0,0,0-1.616-3.636c-1.3-7.15,4.323-18.886-7.13-21.673-3.131-.747-6.585,2.454-6.11,4.716.656,3.282,2.616,6.272,3.424,9.594.475,1.878-.141,3.868-.737,5.928A10.237,10.237,0,0,0,138.5,56.6c-2.212,5.242-2.525,11.937-1.707,18.209-3.838,6.1-7.9,10.008-5.211,17.7,1.05,2.969-.313,6.807-.354,9.958-.01,1.99-1.535,3.706-.778,5.969a4,4,0,0,0,.6,1.172c-1.313,1.535-2.737,3.05-4.141,4.555-5.009,5.332-10.433,10.816-12.786,16.755-.313.182-.576.394-.879.555a13.02,13.02,0,0,0-2.091,1.353c-4.292.667-9.968.222-13.866,1.081-5.019,1.07-10.574,5.948-10.624,10.17a51.573,51.573,0,0,0,.374,7.15c.677,5.353-.757,8.867-3.757,12.1-1.778,1.182-3.464,2.394-5.252,3.818a317.282,317.282,0,0,1-30.157,21.572c-3.717,2.333-.212,6.6,3.969,4.5a49.4,49.4,0,0,0,5.484-3.212c4.666-2.414,9.9-4.5,14.29-7.069,2.8-1.616,11.614-9.483,15.088-8.675,8.706,1.99,15.8-6.4,18.441-11.453,3.767-7.211,15.725-6.9,20.976-13.806,1.7-2.2,1.979-4.615,2.07-7.171.212-4.949,3.929-8.948,6.474-13.3a2.2,2.2,0,0,0,.323-1.656c7.14-5.433,16.523-9.443,20.481-16.947a11.413,11.413,0,0,0,1.222-4.807c5.181-2.323,7.615-7.16,7.282-12.836C163.757,88.936,165.13,86.8,164.474,83.886Z" transform="translate(492.304 125.051)" fill="#fff"/><path d="M141.563,46.506c-.535-4.343-3.353-7.019.061-10.675,2.02-2.131,1.828-3.585.838-5.858-.838-1.909-4.282-.333-4.817.889-2.353,5.312-11.9,5.938-10.261,13.018,1.414,5.959-.727,11.15-3.373,16.694-2.232,4.646-2.444,9.463-3.686,14.27-1.161,4.444-1.05,6.958,1.081,11.21,1.818,3.616,4.676,4.211,3.121,7.9-.98,2.282-1.485,3.969-.717,6.383a8.967,8.967,0,0,1-.162,4.827,19.623,19.623,0,0,1-7.948,4.1c-8.584,2.454-15.906,4.918-21.643,10.665,1-1-6.979.606-6.878.6a172.746,172.746,0,0,0-16.957,5.625,148.234,148.234,0,0,0-26.43,12.533c-1.8,1.141-1.475,4.312,1.424,3.858,6.908-1.111,13.624-2.5,20.623-3.232,7.09-.727,14.351.212,21.31-.495,13.2-1.333,20.815-4.423,27.026-13.957,2.606-3.989,7.635-7.332,11.574-11.15a7.377,7.377,0,0,0,4.141-.061c9.847-3.535,11.23-9.918,9.907-17.825-.323-1.8.495-.727,1.757-4.444,1.222-3.717-.818-6.12-4.151-8.675C124.525,72.9,142.936,58,141.563,46.506Z" transform="translate(459.417 94.967)" fill="#fff"/><path d="M71.568,41.313c-13.1,1.98-27.339,8.786-36.509,16.3-1.737,1.444-.192,3.807,2.262,2.525C48.2,54.523,59.1,47.747,71.568,44.374,73.386,43.879,74.163,40.92,71.568,41.313Z" transform="translate(383.315 205.92)" fill="#fff"/><path d="M111.023,39.089C105.57,32.3,95.662,49.532,94.3,51.8c-2.121,3.535-2,4.848-6.423,6.009-3.05.768-6.544,1.252-9.6,2.282.273-.424.555-.828.768-1.242,1.384-2.363-1.434-3.908-4.141-3.333A97.543,97.543,0,0,0,57.75,61.308C51.811,63.8,45.125,64.045,40.813,68.63c-4.989,5.332-3.343,10.7-7.1,16.2-3.212,4.706-7.908,8.11-9.5,13.462-1,3.3,4.8,2.565,6.332.8,3.373-3.919,6.8-7.7,10.523-11.443,3.414-3.383,6.484-8.766,11.523-11.129A31.946,31.946,0,0,0,45.6,83.062c-1.454,1.858.818,4.272,3.363,2.7,8.221-5.06,17.179-8.706,25.511-13.442,3.383-1.919,9.463-1.495,13.4-1.939,4.3-.5,10.069-2.616,13.1-5.13,2.707-2.272,11.1-24.046,8.281-24.5C110.226,40.917,111.65,39.837,111.023,39.089Z" transform="translate(290.293 171.695)" fill="#fff"/><path d="M44.77,45.421c-3.7,3.464-9.2,4.605-14.311,6.383-5.767,1.99-12.523,6.969-7.857,12.069,2.111,2.3,7.352.848,9.261-.808a10.9,10.9,0,0,0,1.969-2.02c0,.03,1.535-1.444.818-.838A43.985,43.985,0,0,0,38.9,56.389c2.919-3.2,4.141-7.059,7.261-10.18C46.941,45.441,45.537,44.724,44.77,45.421Z" transform="translate(262.532 241.048)" fill="#fff"/><path d="M22.659,135.554c12.846-1.7,26.026.242,36.842-6.807,7.292-4.747,13.311-10.392,21.491-14.28a107.184,107.184,0,0,0,11.382-5.757c4.757-3.08,6.716-6.464,8.817-10.927,1.565-3.383,4.767-9.029,9.473-10.463a55.149,55.149,0,0,1,7.049-1.131,28.467,28.467,0,0,0,15.6-7.574c6.979-6.918,9.766-15.26,15.805-22.511,3.676-4.393,8.756-7.9,13.786-11.382-7.241,3.161-16.058,6.09-20.6,11.806-3.4,4.312-14.1,19.562-19.047,19.047-7.393-.768-17.038-.7-23.642,2.626-6.948,3.474-8.736,8.706-11.8,14.129a19.455,19.455,0,0,0-5.969,2.777c-4.666,3.313-5.979,7.564-9.17,11.695a20.283,20.283,0,0,0-2.373,4.474,14.092,14.092,0,0,0-1.081,1.293,8.434,8.434,0,0,0-1.818,4.838c-3.01,4.918-7.352,8.362-15.058,11.079-6.878,2.434-16.846,2.757-24.289,4.262A48.251,48.251,0,0,0,15.6,137.039,44.6,44.6,0,0,1,22.659,135.554Z" transform="translate(212.998 237.254)" fill="#fff"/><path d="M150.811,93.232c-4.939-2.151-7.938-5.151-12.149-7.989-2.394-1.565-4.585-2.777-6.555-4.161-.071-2.858.192-5.706-.111-7.13-.859-4.09-9.4-10.594-14.2-12.049-8.524-2.545-15.745-4.322-22.764-9.241-7.08-4.949-17.421-8.514-23.622-13.937-.869-.757-2.6.475-2.1,1.313,5,7.968,8.867,12.867,17.2,19.179,8.2,6.221,17.159,11.311,25.652,17.139,6.07,4.181,9.433,30.52,24.652,16.381,3.343,3.181,6.464,6.514,12.442,5.282C151.66,97.524,153.467,94.373,150.811,93.232Z" transform="translate(700.924 180.552)" fill="#fff"/><path d="M182.579,92.287c-6.332-7.181-11.23-11.554-13.543-20.471-1.868-7.292-4.272-13.563-13.776-16.432-3.969-1.212-8.655-.99-12.846-1.212-5.746-.323-10.513-3.222-16.129-4.141-3.989-.656-8.8.232-12.735.566a43.165,43.165,0,0,1-24.915-5.464c-6-3.525-14.624,4.222-8.2,7.807,8.352,4.615,18.724,9.524,29.025,10.21,5.454.343,9.736-1.01,14.785,1.363,4.4,2.06,9.675,2.878,14.664,3.3,8.8.727,10.968,2.02,12.725,8.908a73.133,73.133,0,0,0,4.05,11.958c3.07,6.918,10.19,11.735,19.391,12.5C181.014,101.709,186.175,96.326,182.579,92.287Z" transform="translate(782.278 232.833)" fill="#fff"/><path d="M218.4,92.309a34.28,34.28,0,0,0-11.2-2.07c-5.5-.313-15.28-7.8-20.613-10.13-3.424-1.525-5.868-3.858-9.241-5.423-4.383-2.04-5.4-5.979-9.453-8.12-3.454-1.858-12.331-1.353-14.3-2.626a150.032,150.032,0,0,0-15.422-8.322,39.481,39.481,0,0,0-13.23-4.2c-7.211-.98-13.917,2.616-21.582,1.626-1.081-.151-2.535,1.454-1.192,1.858a43.99,43.99,0,0,0,12.048,1.889c11.3.414,15.684,4.949,22.612,10.705,3.383,2.808,6.969,5.989,11.4,7.686,5.343,2.03,9.635.545,14.4,4.191,2.323,1.788,4.1,2.3,7.15,2.878a34.6,34.6,0,0,1,13.977,5.464c9.423,6.1,21.138,5.827,32.439,7.948C218.276,96.056,220.731,93.208,218.4,92.309Z" transform="translate(995.762 296.628)" fill="#fff"/><path d="M195.177,71.58c-26.107,3.777-51.426-13.967-74.594-20.663-1.777-.525-4.514,1.434-2.888,2.737,4.848,3.868,10.907,6.4,15.654,10.352,4.888,4.05,10.2,6.15,17.108,7.372,7.181,1.262,14.129,3.2,21.259,4.545,6.9,1.3,16.361-.566,23.047-1.7C196.571,73.933,197.551,71.247,195.177,71.58Z" transform="translate(1137.477 292.836)" fill="#fff"/><path d="M253.031,72.736c-8.766.02-17.29.434-26.076-.293-7.372-.606-16.29-3.181-23.693-2.535A104.072,104.072,0,0,0,182.9,73.8c-11.584,3.343-20.441,1.373-27.834-6.565-2.414-2.606-6.13-3.1-7.443-6.453-1.01-2.606-2.141-3.545-4.373-5.676-4.747-4.484-12.331-5.171-17-10.321-8.261-9.089-27.44-3.848-38.024-10.392-2.272-1.384-6.756,1.081-5.07,3.171,3.626,4.474,7.776,6.676,14.21,8.382,3.171.858,6.373,1.475,9.5,2.333,5.353,1.424,5.747,4.807,8.938,7.5,6.383,5.4,14.765,7.11,18.956,14.038,3.222,5.282,13.18,5.767,18.886,8.2,16.482,7.019,26.895-.656,44.154-2.2,9.635-.838,23.844,6,33.55,7.857,8.12,1.555,15.947.111,23.107-2.808C259.374,78.866,259.283,72.715,253.031,72.736Z" transform="translate(824.383 139.574)" fill="#fff"/><path d="M61.634,34.992c-9.221,8.635-12.22,18.754-20.885,27.4-2.333,2.323-4.939,7.039-4.524,10.2-.2,3.292.5,6.746-2.737,8.514-.929.323-1.858.626-2.747.929-.384.061-.747.151-1.172.182a9.758,9.758,0,0,0-7.746,4.868c-.162.333-.364.656-.555.99-3.414,5.656,4.908,8.433,10.362,5.949,8.069-3.686,22.41-10.2,16.815-19.492-5.2-8.574.636-11.887,4.04-19.2a66.179,66.179,0,0,1,12.3-18.522C66.441,35.033,63.321,33.417,61.634,34.992Z" transform="translate(257.312 142.909)" fill="#fff"/><path d="M110.3,40.756C108.861,43.23,98.6,44.068,95.59,44.765c-4.474,1.03-9.958,4.928-11.22,8.463-2.1,5.858-5.767,5.322-11.745,8.463-4.353,2.282-7.7,3.807-12.685,3.636a13.354,13.354,0,0,0-5.11.778,15.979,15.979,0,0,0-8.3,7.181c-3.979,6.979-10.725,3.929-16.613,8.655-4.868,3.858-6.3,8.09-7.261,13.4-.879,4.605-16.593,9.645-20.754,11.6-1.121.555-1.474,2.474.384,2.232,5.868-.687,9.948-3.121,14.806-5.787,7.756-4.282,9.9-3.141,15.886-9.938,4.131-4.726,10.534-7.595,15.078-12.079a17.961,17.961,0,0,0,3.5-5c2.777-5.06,8.251-6.736,14.4-8.352C79.047,64.59,94.388,70.6,96.5,55.854c1.071-7.292,17.341-6.322,18.35-15.018C115.122,38.332,111.224,39.221,110.3,40.756Z" transform="translate(79.906 187.622)" fill="#fff"/><path d="M146.549,26.846c-9.625-1.151-19.684-.757-29.359-.01-11.281.879-20.148,6.039-31.045,7.595-23.107,3.323-34.479,24.612-54.88,31.682-.879.323-.98,1.565.2,1.242,7.15-1.828,12.9-5.07,18.724-8.736,8.8-5.484,20.744-7.12,30.581-11.18,11.412-4.7,17.936-12.18,31.4-14.593,10.867-1.939,22.077-.636,32.994-1.727C147.589,30.866,150.023,27.24,146.549,26.846Z" transform="translate(349.428 68.019)" fill="#fff"/><path d="M267.8,105.275c-3.767-4-11.715-4.575-16.906-7.352a228.588,228.588,0,0,0-24.663-10.8c-7.4-2.909-11.412-6-17.532-10.362-3.848-2.757-6.888-3.7-7.625-8.029-.495-2.979-2.222-4.575-4.636-6.756-7.171-6.413-26.551-2.02-35.085-.646a23.417,23.417,0,0,1-4.04.263,15.219,15.219,0,0,0-2.878-1.555,6.543,6.543,0,0,0-5.06.343c-6.867-1.727-13.856-4.767-20.562-5.706-9.736-1.323-22.824-3.575-27.48-11.3-1.424-2.414-6.019.313-5.019,2.484,5.12,10.766,21.4,17.108,34.156,21.1a55.565,55.565,0,0,0,18.34,2.262c2.252,2.212,4.03,4.939,7.039,6.221,5.3,2.313,10.453,1.747,16.23.778,6.9-1.192,7.4,3.565,12.452,6.251,3.07,1.656,6.363,3.04,9.615,4.474,3.706,3.646,8.413,7.282,13.614,8.9,8.382,2.585,17.3,3.131,25.814,6.322,4.636,1.737,9.13,3.585,13.624,5.5,3.141,1.353,10.544,1.495,12.715,3.636C263.552,114.819,271.167,108.84,267.8,105.275Z" transform="translate(946.193 216.431)" fill="url(#r)"/><path d="M299.1,171.755c-.4-.848-.838-1.677-1.293-2.525-6.969-12.463-19.482-22.249-26.258-34.883-7.09-13.169-13.028-25.481-27.43-34.853-8.332-5.373-18.32-10.19-25.8-16.553-10.9-2.737-22.027-4.6-31.267-11.119C194.6,78,202.476,83.941,211.576,88.688c14.119,7.362,20.875,17.916,29.894,28.722.606.717-1.04,1.525-1.838,1.3-16.27-5.08-26.935-18.179-43.892-21.9-20.623-4.514-41.821-7.049-62.383-11.846-14.644-3.434-24.844-9.6-33.479-19.6-7.271-8.4-13.836-17.987-22.5-25.844a23.934,23.934,0,0,1-2.848-1.868c-.566-.616-1.131-1.242-1.747-1.848,10.685,17.431,17.7,37.569,37.58,49.254,14.291,8.413,30.328,11.493,47.679,13.594,14.876,1.788,31.338,2.7,44.831,8.463,12.937,5.514,23.158,13.765,32.883,22.33,5.312,4.737,10.534,9.554,16.129,14.078,5.413,4.343,11.392,8.17,16.8,12.543,16.068,13.058,31.217,28.541,41.72,45.336a2.147,2.147,0,0,0-.3-1.5C304.651,190.943,301.54,181.41,299.1,171.755Z" transform="translate(733.306 156.152)" opacity="0.4" fill="url(#s)" style="mix-blend-mode:screen;isolation:isolate"/><path d="M155.952,172.973c-.071-5.4.081-11.584-3.807-16.31-2.5-3.05-5.827-5.635-8.13-8.786-6.989-9.463-3.908-21.279-9.362-31.348-6.15-11.362-16.4-20.623-24.895-30.9-4.444-5.353-7.342-11.049-10.059-17.068-3.484-7.655-6.655-15.4-10.089-23.1-.263-.545-1.03-2.575-2.06-4.918-1.838.242-3.585,1.454-3.727,3.04-1.192,12.3,4.807,23.723,6.09,35.863.889,8.625-7.837,17.209-11.927,24.976a36.543,36.543,0,0,0-2.424,5.777c.172-9.251,2.373-18.754,4.787-27.187,1.818-6.251-.273-10.624-2.535-15.6.222-10.645-5.524-22.744-7.241-32.7-.434-2.515-4.928-.667-4.757,1.323a8.6,8.6,0,0,0,.081.879c-.97.374-1.767,1.161-1.515,1.9,1.192,3.323,2.333,6.787,3.414,10.352,1.737,9.392,3.565,19.027,1.485,27.773C66.22,89.715,60.07,101.591,60.07,114.8c.03,5.656-1.485,11.533-1.192,17.068.313,6.787,3.878,12.513,5.807,19.068,4.222,14.422,12.553,27.8,16.916,42.154.879,2.919,5.888,1.212,6.181-1.131.848-6.575-1.151-12.745-2.02-19.269-1.06-7.787-1.01-15.634-1.434-23.451-.5-9.917,2.606-15.785,10.079-23.37a165.578,165.578,0,0,0,11.129-13.281,186.13,186.13,0,0,1,9.635,21.835c1.374,3.616,5.524,6.575,8.13,9.594,3.747,4.323,6.6,9.1,10.221,13.493,2.808,3.383,5.383,6.474,7.16,10.322,2.585,5.656,1.919,12.372,4.939,17.825,3.3,5.989,7.059,12.9,11.584,18.916C155.256,194.091,156.053,182.951,155.952,172.973Z" transform="translate(606.455 135.018)" opacity="0.4" fill="url(#t)" style="mix-blend-mode:screen;isolation:isolate"/><path d="M216.816,27.656c1.99-2.919-1.646-4.454-4.575-2.616-9.493,5.969-25.874,18.088-21.411,28.4-8.473,3.353-16.25,6.716-16.906,15.805a3.381,3.381,0,0,0,.293,1.777c-.192.222-.384.444-.576.687-1.959,2.454-2.808,5.423-4.585,7.928-2.727,3.777-9.594,5.383-14.3,6.837a36.067,36.067,0,0,0-5.706,2.333c-2.272-1.464-6.5-1.323-9.312-.212a15.058,15.058,0,0,0-9.13,8.564c-.111.283-.2.525-.293.727a64.371,64.371,0,0,0-6.716,2.464c-10.665,5.181-8.817,13.089-6.029,21.188-4.09,4.312-6.565,9.291-9.645,14.24a11.932,11.932,0,0,0-1.828,5.06c-4.474,1.666-9.312,2.989-12.917,5.343a24.594,24.594,0,0,0-5.353,4.484c-11.079,3.383-19.593,13.26-12.5,21.451a28.913,28.913,0,0,1-8.776,6.868c-5.373,2.565-10.867,4.918-16.068,7.766-7.08,3.878-13.644,8.928-16.23,15.513-1.06,2.787,3.01,2.909,4.777,1.151,8.827-8.928,18.593-13.5,30.53-19.431,8.847-4.363,20.582-8.827,26.036-16.078,1.778-2.363,2.282-5.141,2.676-7.817a1.237,1.237,0,0,0,.071-.323c3.949-.131,8.332.061,11.745-1,11.362-3.575,9.332-10.857,12.624-18.573,1.717-4.02,5.807-11.392,10.049-13.887,5.06-2.969,11.776-5.292,15.361-9.625,3.242-3.969,3.535-11.271,7.08-14.432,4.2-3.807,10.059-4.979,15.765-6.5,1.808-.5,3.474-1.929,3.676-3.474.04-.374.081-.747.131-1.141a1.984,1.984,0,0,0-1.394-2.05,12.679,12.679,0,0,0,3.686-4.565c1.929-4.11,2.5-8.13,5.1-12.008a5.812,5.812,0,0,0,2.444-1.949c4.353-6.251,10.241-7.655,18.159-10.473,4.524-1.616,8.918-6.231,4.9-9.867s-1.878-4.009-.242-8.029C209.655,36.594,213.352,32.706,216.816,27.656Z" transform="translate(381.124 50.919)" fill="#fff"/><path d="M151.942,62.872c-6.918-2.626-17.068-2.494-25.147-1.565-2.7-1.172-5.1-.929-8.049-1.03-.05-.111-.081-.2-.151-.343a8.145,8.145,0,0,0-2.878-2.727c-2.707-1.808-5.858-1.727-9.231-1.777-4.868-.03-9.049-3.343-12.846-5.433-2.606-1.394-7.09.121-8.908,1.7a24.468,24.468,0,0,0-2.363,2.222,6.107,6.107,0,0,0-1.222-.525c-9.564-2.989-7.807-14.321-8.463-21.552-.242-2.7-5.13-.9-5.464,1-1.313,7.928-5.888,16.573-2.767,24.551,1.606,4.1,6.464,4.8,8.231,8.968,2.282,5.4,5.716,8.362,10.766,12.382,7.443,5.969,17.765,8.978,26.763,3.2,8.069-5.141,12.806-9.16,24.117-8.8,6.423.2,10.523.111,16.26-2.232C154.012,69.557,156.234,64.508,151.942,62.872Zm-51.789,9.271a23.973,23.973,0,0,1-2.495-1.252l.828-.1a69.983,69.983,0,0,1,7.423,0C104.091,72.133,102.152,72.91,100.152,72.143Z" transform="translate(647.782 107.546)" fill="#fff"/><path d="M116.982,39.76c-2.707-1.757-4.737-2.888-8.281-3.242-4.787-.465-8.362-.727-12.968-2.1-6.6-1.99-11.311.485-17.27,2.787-2.7,1.06-1.868,4.333,1.333,3.646,2.717-.566,7.736-2.666,9.847-.616a22.3,22.3,0,0,0,4.383,3.706c5.969,3.272,10.5,4.706,17.724,3.717C115.3,47.152,121.234,42.507,116.982,39.76Z" transform="translate(770.283 136.87)" fill="#fff"/><path d="M179.639,50.116c-3.545-10.917-26.854-13.483-39.256-14.694-5.191-.515-9.857.2-13.846,3.121-4.272,3.1-10.4,12.594-17.037,12.351-2.272-.081-4.646,2.888-1.677,3.4,9.443,1.7,15.593-4.949,23.562-7.726,2.474-.858,13.25,3.949,16.825,4.242,9.11.8,16.482,4.868,25.814,4.6C176.891,55.317,180.4,52.479,179.639,50.116Z" transform="translate(1039.51 151.236)" fill="#fff"/><path d="M183.057,28.833c-7.494,1.333-14.816,2.484-22.1,4.5-8.16,2.232-12.675,8.524-20.7,11.069-8.6,2.757-15.957,6.534-21.431,12.452-4.292,4.615-11.251,7.272-15.8,12.109-1.676,1.788.222,3.878,2.868,3.222a31.3,31.3,0,0,0,7.635-2.808c7.473-3.626,3.484-1.444,9.867-.778a34.551,34.551,0,0,0,23.3-6c7.817-5.666,9.615-16.775,19.643-19.714,7.241-2.141,13.634-3.888,18.775-8.645C186.884,32.59,187.642,28.025,183.057,28.833Z" transform="translate(1002.794 91.816)" fill="#fff"/><path d="M194.462,28.1c-7.494,2.313-13.27.454-19.956,5.161a60.309,60.309,0,0,1-18.28,8.857c-2.373.727-5.221,3.363-7.564,3.767-8.211,1.474-14.563,7.837-18.411,13.3-2.343,3.323-2.565,7.948-5.11,11-3.757,4.5-10.13,8.322-15.462,11.5-1.959,1.151-3.161,4.908.778,4.484,9.281-1,14.654-7.423,22.915-10.5,8.473-3.131,14.25-9.584,18.623-15.826,1.929-2.7,3.565-5.706,3.4-8.837-.131-3.04,7.726-3.555,10.877-4.827A34.079,34.079,0,0,0,177.02,39.54c4.959-4.312,12.5-5.292,18.593-8.4C197.552,30.178,197.259,27.218,194.462,28.1Z" transform="translate(1052.429 84.523)" fill="#fff"/><path d="M357.423,129.282c-21.845-10.22-42.872-21.5-63.888-32.732C272.8,85.431,248.27,79.624,225.021,72.585c-13.26-4.02-23.1-9.4-34.126-16.31-9.382-5.858-15.321-9.645-27.47-11.2-3.6-.444-23.158-.02-24.329-2.646-2.99-6.625-13.614-8.524-18.037-14.381-.868-1.131-3.03-.02-2.828,1.081,1.182,5.959,6.06,9.291,10.7,13.876,2.606,2.575,1,5.656,1.778,8.483.656,2.565,3.08,3.464,5.605,4.9,8.453,4.767,18.361,7.039,28.531,8.312,14.694,1.868,28.753,3.363,42.528,8.423,24.238,8.908,50.9,14.24,73.18,26.117,23.764,12.685,45.71,26.1,71.746,36.156C356.534,137.038,361.947,131.393,357.423,129.282Z" transform="translate(1146.748 81.22)" fill="#fff"/><path d="M271.384,89.987a66.693,66.693,0,0,0-16.644-6.655c-3-.717-19.633-2.121-20.825-3.666-4.322-5.454-11.523-5.575-18.259-6.595-.485-1.444-1.858-2.515-4.525-2.636-11.422-.475-23.552-5.777-33.136.172a29.507,29.507,0,0,1-4.07-1.4c-8.281-3.6-11.756-11.665-20.491-14.684a4.536,4.536,0,0,0-1.01-.222c-2.212-4.9-4.666-9.776-6.868-14.482-.828-1.808-4.343.02-4,1.525,1.06,4.918,6.666,18.7,1.747,22.835a15.9,15.9,0,0,0-5.827,8.756c-2.414,8.968,11.543,8.483,16.088,12.543,3.08,2.767,7.685,4.02,12.079,4.817,7.1,1.273,10.614,4.817,16.331,7.676,11.321,5.676,24.44,11.251,38.085,10.958,4.1-.071,6.726-4.605,3.242-6.575-10.655-5.979-24.915-8.059-34.63-15.078-3.757-2.737-9.4-5.413-13.6-8.524a99.918,99.918,0,0,0,12.452.3A156.083,156.083,0,0,0,202.992,82c3.373,1.858,7.857,1.747,11.836,2.353,2.656.374,5.292.717,7.9.929A17.714,17.714,0,0,0,227,87.826c5.019,1.949,13.816.929,19.673,1.909,7.655,1.323,14.816,2.888,22.7,3.353C271.354,93.209,273.425,91.078,271.384,89.987Z" transform="translate(1319.469 185.757)" fill="#fff"/><path d="M151.469,44.346c-.162,0-.252.252-.051.252C151.6,44.6,151.681,44.346,151.469,44.346Z" transform="translate(1447.797 233.842)" fill="#fff"/><path d="M344.857,73.331c-12.22-.353-24.6-.323-36.883-.162,2.525-1.949,3.04-6.756-1.868-5.969-2.03.323-5.13-.414-7.746-1.02a27.394,27.394,0,0,0-4.858-1.343c2-3.959-2.05-8.029-7.473-7.585a20.435,20.435,0,0,0-13.513,6.312,9.627,9.627,0,0,0-.8,1c-3.585-.555-7.3-.879-10.978-1.474-14.159-2.313-21.1-8.382-33.075-13.523-8.554-3.686-16.593-3.464-26.036-2.585-11.786,1.05-24.279,1.262-36.135,1.677-1.878.091-3.434,3.04-1.03,3.151,9.291.343,18.472,3.121,27.662,3.212,6.353.061,12.594-.7,18.936-.525,5.565.121,9.887,2.818,14.27,5.221-.121-.01-.293-.04-.414-.04-9.271-2.121-17.552,10.847-6.585,13.513,4.524,1.091,8.867,4.666,13.1,6.4,5.928,2.424,13.139,2.5,19.582,2.858,8.211.495,14.715-1.9,22.723,1.141,3.6,1.374,7.039.485,10-1.212a7.607,7.607,0,0,0,1.161-.828,26.421,26.421,0,0,0,9.392-.475,13.261,13.261,0,0,0,7.787-5.777c.616-.131,1.2-.283,1.757-.434,13.291.667,26.612,2.2,39.9,1.939C345.857,76.765,347.554,73.4,344.857,73.331Z" transform="translate(1556.389 252.899)" fill="#fff"/></g></g><path d="M0,407.932s175.466-16.482,286.72-67.3,118.122-32.964,118.122-32.964l1124.9,133.23s39.832-10.988,85.158,0,60.434,21.976,87.9,12.362,108.851-76.916,160.7-82.411,71.079,0,71.079,0" fill="none" stroke="#000" stroke-width="7"/><g transform="translate(71.617 621.016)"><g transform="translate(-138.196 -9.596)"><path d="M1867.029,374.329S1547.9,290.468,1321.666,251.785C1095.471,213.077,419,216.373,187.773,211.4-43.315,206.373-163.352,70.621-163.352,70.621S-29.267,40.378,336.23,79.469C701.675,118.545,899.984,153.7,1060.8,136.835,1221.646,120,1354.167,58.114,1496.5,58.518,1638.836,58.9,1824.092,7.526,1876.58-9.6Z" transform="translate(163.352 9.596)" fill="url(#u)"/><path d="M336.23,79.469C701.675,118.545,899.984,153.7,1060.8,136.835,1221.646,120,1354.167,58.114,1496.5,58.518,1638.836,58.9,1824.092,7.526,1876.58-9.6l-6.43,66.04c-101.8-24.663-198.77,12.233-340.688,50.427-168.971,45.509-53.488-1-.6-17.773,39.363-12.516-87.068-40.669-273.686,23.163-94.063,32.12-133.644,56.3-244,71.159-103.235,13.83,64.079-15.589,109.859-37.167,45.8-21.513-102.75,16.151-216.11,2.766-144.534-17.033-177.872,21.8-211.763,13.3-41.312-10.413,4.715-.983,50.621-11.7,45.885-10.692-161.838-14.024-263.993-38.627C309.468,71.086,3.246,80.331-147.694,86c-10.372-9.418-15.658-15.379-15.658-15.379S-29.267,40.378,336.23,79.469Z" transform="translate(163.352 9.596)" fill="url(#v)" style="mix-blend-mode:screen;isolation:isolate"/><path d="M780.46,17.171S684.92-14.424,522.731,49.295c-102.39,40.281-100.772,43.932-176.9,48.433-76.194,4.557-120.9,5.661-145.278,16.806-24.392,11.072,76.687,13.85,180.181,24.449,102.644,10.5,301.633,7.877,401.993-10.332C883.124,110.405,780.46,17.171,780.46,17.171Z" transform="translate(1259.812 67.228)" fill="url(#v)"/><g transform="translate(66.857 131.369)" opacity="0.7" style="mix-blend-mode:multiply;isolation:isolate"><path d="M1271.343,152.9c-226.2-38.707-902.671-35.412-1133.893-40.386C6.47,109.69-88.75,64.868-146.819,26.565c48.643-3.724,111.743-5.071,193.663-1.9C364.6,36.982,590.714,66.1,534.829,79.187c-55.95,13.235,61.017-.279,191.758-7.53,130.749-7.267,205.859,16.321,153.225,23.7-52.639,7.526,59.659,23.034,186.958,8.181,127.28-14.837,135.767-20.53,124.024,4.177-11.582,24.4,467.923,74.548,629.591,16.584L1817.1,261.059S1497.578,191.586,1271.343,152.9Z" transform="translate(146.819 -22.89)" fill="url(#v)"/></g></g><g transform="translate(-171.617 121.459)"><path d="M-116.812,25.43C1.514,7,119.121,91.793,260.792,96.46c141.595,4.63,261.87,12.916,359.682-25.225C718.343,33.073,728.623,112.186,981.2,92.966,1233.862,73.843,1342.855,58.844,1537.4,126.7c194.484,67.783,366.072,68.656,366.072,68.656L1866.915,293.5S1181.891,148.892,787.836,175.112C393.818,201.353,85.084,311.8-28.1,251.763-141.3,191.777-235.24,43.878-116.812,25.43Z" transform="translate(171.617 -22.813)" fill="url(#v)"/><path d="M1289.987,177.709c-28.578-7.065-57.629-13.171-87.245-17.138-29.124-3.866-58.627-5.285-88.03-7.89-51.579-4.57-111.771-12.051-182.607-16.078-62.554-3.6-125.084-2.038-187.658,1.957-121.99,7.578-243.45,20.171-365.412,28.311-59.606,3.914-119.624,6.232-179.384,3.348-50.386-2.442-103.461-6.688-149.986-22.973C10.54,133.664-26.631,111.083-43.154,79.662c-9.6-18.355-9.026-38.085,3.356-53.536-25.832-3.83-51.446-4.658-77.015-.728C-235.24,43.846-141.3,191.745-28.1,251.731c113.187,60.035,1238.5-64.79,1447.439-35.4C1376.913,202.158,1334.121,188.49,1289.987,177.709Z" transform="translate(171.617 -22.781)" fill="url(#v)" style="mix-blend-mode:multiply;isolation:isolate"/><path d="M135.683,99.5c77.184-5.241,136.152,24.445,265.817-4.9,164.345-37.187,171.062-25.561,257.454,4.258,86.493,29.815,162.477,23.778,175.838,22.318,13.405-1.4-98.265-6.968-117.8-18.153-19.552-11.246,270.091-4.982,368.526-13.737,98.5-8.771,188.616-5.536,387.334,62.141,160.431,54.673,301.051,35.3,301.051,35.3s-171.588-.873-366.071-68.656C1213.29,50.211,1104.3,65.21,851.638,84.333,599.057,103.553,588.778,24.44,490.909,62.6,393.1,100.743,272.821,92.457,131.227,87.827,36.128,84.709-48.149,45.512-129.05,25.649c59.626,32.266,146.985,72.769,226.422,83.74C325.343,140.967,77.581,103.367,135.683,99.5Z" transform="translate(301.182 -14.18)" fill="#b7b8b9" opacity="0.3" style="mix-blend-mode:overlay;isolation:isolate"/></g></g><path d="M-72.315,695.923-.893,681.638s582.093-1.785,708.868,28.569,819.573-28.569,819.573-28.569,252.657-3.571,391.038-57.138" fill="none" stroke="#000" stroke-width="6"/><g transform="translate(170.689 658.281)"><path d="M1693.9,732.018s32.741-13.915,73.667,28.648,35.2,54.023,35.2,54.023l-5.73,106.408s-9,54.023-85.126,68.756c-45.019,7.367-79.4,2.456-85.945-6.548s0-50.749,3.274-57.3,6.548-20.463,35.2-34.378,17.189-45.019,9-56.478-19.645-38.471-20.463-45.837,2.456-30.285,24.556-40.108c3.274-1.637,1.637-1.637,1.637-1.637s-4.093-4.093-9.822-3.274c.818-1.637,9-6.548,25.374-8.185C1697.178,735.292,1693.9,732.018,1693.9,732.018Z" transform="translate(-1581.766 -729.843)" fill="#2f2745" stroke="#000" stroke-linecap="round" stroke-linejoin="round" stroke-width="4"/><path d="M1787.5,954s-13.1,47.475-101.5,45.019c18.826-15.552,28.126-18.06,31.661-26.628S1787.5,954,1787.5,954Z" transform="translate(-1617.653 -770.521)" fill="#201b30"/><path d="M1823.5,960.059V939.6s2.456,3.274,4.911,2.456S1832.5,926.5,1832.5,926.5s3.274,13.915,7.366,13.915c3.274,0,3.274-4.911,3.274-4.911l2.456,8.185s-6.548,11.459-9,18.826a150.3,150.3,0,0,0-4.293,18.469l-6.348-1.28Z" transform="translate(-1788.303 -765.531)" fill="#dac68a" stroke="#000" stroke-linecap="round" stroke-linejoin="round" stroke-width="3"/><path d="M1881.063,1023.538s-39.289-28.649-42.563-72.849c0,0,13.915,13.1,13.1-17.189,0,.819,8.185,19.645,16.371,11.459,1.637,3.274,8.185,28.648,13.1,36.834,0,9,1.637,34.378,2.455,37.652C1882.7,1022.719,1881.063,1023.538,1881.063,1023.538Z" transform="translate(-1838.5 -766.801)" fill="#dac68a" stroke="#000" stroke-linecap="round" stroke-linejoin="round" stroke-width="3"/><path d="M1791.87,838.5,1775.5,855.689l22.919-8.185" transform="translate(-1701.832 -749.561)" fill="#d7be89" stroke="#000" stroke-linecap="round" stroke-linejoin="round" stroke-width="3"/><path d="M1793.689,859.959l-17.189-3.274,15.552-8.185" transform="translate(-1697.921 -751.376)" fill="#d7be89" stroke="#000" stroke-linecap="round" stroke-linejoin="round" stroke-width="3"/><path d="M1811.323,804.758s21.281,34.378-4.911,106.408c0,0-40.108,61.389-77.76,57.3-1.637-6.548-4.336-34.134,15.839-54.31s34.962-13.279,39.847-36.781c3.248-15.317-20.49-57.062-22.126-61.973s-8.185-34.378,8.185-39.289S1799.045,775.291,1811.323,804.758Z" transform="translate(-1683.633 -737.919)" fill="#fcf8e3" stroke="#000" stroke-linecap="round" stroke-linejoin="round" stroke-width="4"/><path d="M1792,944.252s-45.837,37.652-101.5,18.826c1.637-4.911,47.474-23.737,73.667-78.579" transform="translate(-1625.837 -757.909)" fill="#2f2745" stroke="#000" stroke-linecap="round" stroke-linejoin="round" stroke-width="4"/><path d="M1760.225,831.979l9-10.641a2.267,2.267,0,0,1,3.274,0c1.637,1.637,0,4.093,0,4.093l-9.823,9s-1.637,1.637-2.456.818A2.49,2.49,0,0,1,1760.225,831.979Z" transform="translate(-1663.639 -746.315)" fill="#00000e"/><path d="M1707.339,830.01s-2.456-13.1-6.548-18.008-6.548-4.911-9-4.093-6.548,4.093-4.911,11.459,4.911,19.645,4.911,27.011-4.093,18.826,3.274,21.282,10.641-6.548,12.278-11.459S1708.976,839.833,1707.339,830.01Z" transform="translate(-1539.132 -743.936)" fill="#3c3a71" opacity="0.7"/><ellipse cx="4.911" cy="5.32" rx="4.911" ry="5.32" transform="translate(149.381 133.548)" fill="#3c3a71" opacity="0.7"/><ellipse cx="6.548" cy="13.096" rx="6.548" ry="13.096" transform="translate(113.366 93.441)" fill="#fff" opacity="0.7"/><ellipse cx="4.093" cy="4.093" rx="4.093" ry="4.093" transform="translate(115.003 125.363)" fill="#fff" opacity="0.7"/><g transform="translate(41.434 0.192)"><g clip-path="url(#aa)"><path d="M1739.149,795s-5.73,136.694-45.019,167.8c-23.737,16.371-64.664,36.834-94.131,39.289,11.459,10.641,95.767,4.093,95.767,4.093l74.486-56.478-4.911-102.316Z" transform="translate(-1571.45 -741.859)" fill="#201b30"/></g></g></g><g transform="matrix(1, 0, 0, 1, 0, 1)" filter="url(#ac)"><g transform="translate(383.09 176.88)" fill="url(#ab)"><path d="M 1116.011840820313 782.8151245117188 L 37.51974868774414 782.8151245117188 C 32.97131729125977 782.8151245117188 28.5568904876709 781.8282470703125 24.3991756439209 779.8819580078125 C 20.35589027404785 777.9892578125 16.71774673461914 775.272216796875 13.5861759185791 771.806396484375 C 10.43160438537598 768.31494140625 7.952604293823242 764.2432250976563 6.217889785766602 759.7042236328125 C 4.414461135864258 754.9854125976563 3.500032901763916 749.9676513671875 3.500032901763916 744.79052734375 L 3.500032901763916 41.52453231811523 C 3.500032901763916 36.34738922119141 4.414461135864258 31.32967376708984 6.217889785766602 26.61067390441895 C 7.952604293823242 22.07167434692383 10.43160438537598 17.99995994567871 13.5861759185791 14.50867462158203 C 16.71774673461914 11.04281711578369 20.35589027404785 8.325817108154297 24.3991756439209 6.433103084564209 C 28.5568904876709 4.486817359924316 32.97131729125977 3.499960422515869 37.51974868774414 3.499960422515869 L 1116.011840820313 3.499960422515869 C 1120.560302734375 3.499960422515869 1124.974731445313 4.486817359924316 1129.13232421875 6.433103084564209 C 1133.17578125 8.325817108154297 1136.813720703125 11.04281711578369 1139.9453125 14.50867462158203 C 1143.099853515625 17.99995994567871 1145.578857421875 22.07167434692383 1147.313598632813 26.61067390441895 C 1149.117065429688 31.32967376708984 1150.031494140625 36.34738922119141 1150.031494140625 41.52453231811523 L 1150.031494140625 744.79052734375 C 1150.031494140625 749.9676513671875 1149.117065429688 754.9854125976563 1147.313598632813 759.7042236328125 C 1145.578857421875 764.2432250976563 1143.099853515625 768.31494140625 1139.9453125 771.806396484375 C 1136.813720703125 775.272216796875 1133.17578125 777.9892578125 1129.13232421875 779.8819580078125 C 1124.974731445313 781.8282470703125 1120.560302734375 782.8151245117188 1116.011840820313 782.8151245117188 Z" stroke="none"/><path d="M 37.5196533203125 7 C 20.691162109375 7 7 22.487548828125 7 41.52447509765625 L 7 744.7904663085938 C 7 763.827392578125 20.691162109375 779.3150634765625 37.5196533203125 779.3150634765625 L 1116.01171875 779.3150634765625 C 1132.84033203125 779.3150634765625 1146.531494140625 763.827392578125 1146.531494140625 744.7904663085938 L 1146.531494140625 41.52447509765625 C 1146.531494140625 22.487548828125 1132.84033203125 7 1116.01171875 7 L 37.5196533203125 7 M 37.5196533203125 0 L 1116.01171875 0 C 1136.7333984375 0 1153.531494140625 18.591064453125 1153.531494140625 41.52447509765625 L 1153.531494140625 744.7904663085938 C 1153.531494140625 767.7238159179688 1136.7333984375 786.3150634765625 1116.01171875 786.3150634765625 L 37.5196533203125 786.3150634765625 C 16.798095703125 786.3150634765625 0 767.7238159179688 0 744.7904663085938 L 0 41.52447509765625 C 0 18.591064453125 16.798095703125 0 37.5196533203125 0 Z" stroke="none" fill="#000"/></g></g><g transform="translate(383.585 179.799)" opacity="0.35" clip-path="url(#ae)"><path d="M-191.524,536.2l385.56-385.559,18.658,6.55,52.876-52.876" transform="translate(-277.227 78.403)" fill="none" stroke="#36c8ba" stroke-miterlimit="10" stroke-width="3"/><path d="M76.631,110.236a8.351,8.351,0,1,0,0-11.81A8.351,8.351,0,0,0,76.631,110.236Z" transform="translate(-88.287 72.478)" fill="none" stroke="#9c61e5" stroke-miterlimit="10" stroke-width="2"/><path d="M-121.748,645.679l385.56-385.561V238.46l35.49-35.491" transform="translate(-223.798 385.189)" fill="none" stroke="#36c8ba" stroke-miterlimit="10" stroke-width="3"/><path d="M124.721,209.516a8.35,8.35,0,1,0,0-11.81A8.35,8.35,0,0,0,124.721,209.516Z" transform="translate(-50.279 379.708)" fill="none" stroke="#9c61e5" stroke-miterlimit="10" stroke-width="2"/><path d="M565.8-235.41,180.241,150.151l0,21.658L144.751,207.3" transform="translate(-38.109 -163.166)" fill="none" stroke="#36c8ba" stroke-miterlimit="10" stroke-width="3"/><path d="M151.3,23.716a8.351,8.351,0,1,0,0,11.81A8.349,8.349,0,0,0,151.3,23.716Z" transform="translate(-43.591 19.352)" fill="none" stroke="#9c61e5" stroke-miterlimit="10" stroke-width="2"/><path d="M-2.3,189.289a8.35,8.35,0,1,0,0-11.808A8.347,8.347,0,0,0-2.3,189.289Z" transform="translate(-144.414 128.692)" fill="none" stroke="#0df1f9" stroke-miterlimit="10" stroke-width="2"/><path d="M544.588-196.517,159.027,189.045l-6.1,20.211L49.181,313.005" transform="translate(-106.067 -135.51)" fill="none" stroke="#36c8ba" stroke-miterlimit="10" stroke-width="3"/><path d="M55.315,102.07a8.351,8.351,0,1,0,0,11.808A8.349,8.349,0,0,0,55.315,102.07Z" transform="translate(-111.842 75.069)" fill="none" stroke="#9c61e5" stroke-miterlimit="10" stroke-width="2"/><path d="M555.808-167.416,232.142,156.25l-26.968,0L121.328,240.1" transform="translate(-54.764 -114.818)" fill="none" stroke="#36c8ba" stroke-miterlimit="10" stroke-width="3"/><path d="M127.85,71.163a8.35,8.35,0,1,1-11.81,0A8.349,8.349,0,0,1,127.85,71.163Z" transform="translate(-60.263 53.091)" fill="none" stroke="#9c61e5" stroke-miterlimit="10" stroke-width="2"/><path d="M1026.056-62.062,702.388,261.6l-26.966,0-83.846,83.848" transform="translate(489.856 -167.289)" fill="none" stroke="#36c8ba" stroke-miterlimit="10" stroke-width="3"/><path d="M598.1,176.518a8.35,8.35,0,1,1-11.812,0A8.352,8.352,0,0,1,598.1,176.518Z" transform="translate(484.357 0.619)" fill="none" stroke="#9c61e5" stroke-miterlimit="10" stroke-width="2"/><path d="M635.931-165.509,250.37,220.052v21.657L214.879,277.2" transform="translate(751.71 -124.881)" fill="none" stroke="#36c8ba" stroke-miterlimit="10" stroke-width="3"/><path d="M221.426,93.616a8.351,8.351,0,1,0,0,11.812A8.352,8.352,0,0,0,221.426,93.616Z" transform="translate(746.228 57.638)" fill="none" stroke="#9c61e5" stroke-miterlimit="10" stroke-width="2"/><path d="M-80.673,775.45,242.993,451.784l26.968,0,83.846-83.848" transform="translate(-127.412 179.669)" fill="none" stroke="#36c8ba" stroke-miterlimit="10" stroke-width="3"/><path d="M173.666,374.46a8.35,8.35,0,1,1,11.81,0A8.352,8.352,0,0,1,173.666,374.46Z" transform="translate(51.705 174.171)" fill="none" stroke="#9c61e5" stroke-miterlimit="10" stroke-width="2"/><path d="M-96.247,858.069,289.312,472.509l0-21.656L324.8,415.361" transform="translate(-138.486 213.391)" fill="none" stroke="#36c8ba" stroke-miterlimit="10" stroke-width="3"/><ellipse cx="8.351" cy="8.351" rx="8.351" ry="8.351" transform="translate(182.806 615.562)" fill="none" stroke="#9c61e5" stroke-miterlimit="10" stroke-width="2"/><path d="M-18.633,254.988a8.349,8.349,0,0,0,11.808,0,8.346,8.346,0,0,0,0-11.808,8.349,8.349,0,0,0-11.808,0A8.352,8.352,0,0,0-18.633,254.988Z" transform="translate(-156.026 175.408)" fill="none" stroke="#0df1f9" stroke-miterlimit="10" stroke-width="2"/><path d="M274.437,872.783,660,487.224V460.256L681.95,438.3" transform="translate(247.56 206.739)" fill="none" stroke="#36c8ba" stroke-miterlimit="10" stroke-width="3"/><path d="M513.016,444.825a8.351,8.351,0,1,0,0-11.808A8.351,8.351,0,0,0,513.016,444.825Z" transform="translate(415.47 201.241)" fill="none" stroke="#9c61e5" stroke-miterlimit="10" stroke-width="2"/><path d="M1018.994,105.427,633.435,490.984v26.97l-21.953,21.953" transform="translate(487.225 -29.961)" fill="none" stroke="#36c8ba" stroke-miterlimit="10" stroke-width="3"/><path d="M618,359.765a8.351,8.351,0,1,0,0,11.81A8.354,8.354,0,0,0,618,359.765Z" transform="translate(481.726 149.155)" fill="none" stroke="#9c61e5" stroke-miterlimit="10" stroke-width="2"/><path d="M326.27,923.832,711.832,538.271l18.658,6.549,52.877-52.873" transform="translate(284.417 244.884)" fill="none" stroke="#36c8ba" stroke-miterlimit="10" stroke-width="3"/><path d="M594.426,497.87a8.35,8.35,0,1,0,0-11.81A8.347,8.347,0,0,0,594.426,497.87Z" transform="translate(473.357 238.96)" fill="none" stroke="#9c61e5" stroke-miterlimit="10" stroke-width="2"/><path d="M1156.106,123.13,772.114,507.123l-1.568,1.567-1.256,22.227-73.807,73.8" transform="translate(546.957 -17.373)" fill="none" stroke="#36c8ba" stroke-miterlimit="10" stroke-width="3"/><path d="M701.406,405.6a8.351,8.351,0,1,0,0,11.81A8.351,8.351,0,0,0,701.406,405.6Z" transform="translate(541.033 181.747)" fill="none" stroke="#9c61e5" stroke-miterlimit="10" stroke-width="2"/><path d="M1051.245,203.919,665.688,589.478l-20.57-1.211-23.795,23.8" transform="translate(494.223 40.074)" fill="none" stroke="#36c8ba" stroke-miterlimit="10" stroke-width="3"/><path d="M627.635,443.082a8.35,8.35,0,1,0,0,11.806A8.351,8.351,0,0,0,627.635,443.082Z" transform="translate(488.573 208.396)" fill="none" stroke="#9c61e5" stroke-miterlimit="10" stroke-width="2"/><path d="M599.4,474.738l81.218-81.219,18.658,6.55,52.875-52.876" transform="translate(478.633 141.953)" fill="none" stroke="#36c8ba" stroke-miterlimit="10" stroke-width="3"/><line y1="304.341" x2="304.345" transform="translate(848.976 507.182)" fill="none" stroke="#36c8ba" stroke-miterlimit="10" stroke-width="3"/><path d="M689.688,353.115a8.35,8.35,0,1,0,0-11.806A8.348,8.348,0,0,0,689.688,353.115Z" transform="translate(541.096 136.03)" fill="none" stroke="#9c61e5" stroke-miterlimit="10" stroke-width="2"/><path d="M320.419,935.56,705.98,550l6.1-20.212L815.828,426.038" transform="translate(280.256 198.018)" fill="none" stroke="#36c8ba" stroke-miterlimit="10" stroke-width="3"/><path d="M610.757,432.171a8.35,8.35,0,1,0,0-11.808A8.351,8.351,0,0,0,610.757,432.171Z" transform="translate(484.97 192.243)" fill="none" stroke="#9c61e5" stroke-miterlimit="10" stroke-width="2"/><path d="M1157.646,46.365,772.085,431.925l-6.1,20.212L662.238,555.884" transform="translate(523.317 -71.959)" fill="none" stroke="#36c8ba" stroke-miterlimit="10" stroke-width="3"/><path d="M668.371,344.953a8.351,8.351,0,1,0,0,11.806A8.342,8.342,0,0,0,668.371,344.953Z" transform="translate(517.541 138.619)" fill="none" stroke="#9c61e5" stroke-miterlimit="10" stroke-width="2"/><path d="M543.049-119.752l-383.994,384-1.566,1.566-1.258,22.227L82.426,361.841" transform="translate(-82.426 -80.925)" fill="none" stroke="#36c8ba" stroke-miterlimit="10" stroke-width="3"/><path d="M88.35,162.721a8.351,8.351,0,1,0,0,11.81A8.349,8.349,0,0,0,88.35,162.721Z" transform="translate(-88.35 118.196)" fill="none" stroke="#9c61e5" stroke-miterlimit="10" stroke-width="2"/><path d="M438.189-38.963,52.63,346.6l-20.57-1.211-23.795,23.8" transform="translate(-135.161 -23.477)" fill="none" stroke="#36c8ba" stroke-miterlimit="10" stroke-width="3"/><path d="M14.576,200.2a8.35,8.35,0,1,0,0,11.808A8.353,8.353,0,0,0,14.576,200.2Z" transform="translate(-140.81 144.845)" fill="none" stroke="#9c61e5" stroke-miterlimit="10" stroke-width="2"/></g><g transform="matrix(1, 0, 0, 1, 0, 1)" filter="url(#af)"><path d="M749.652,218.655s28.854,44.917,65.107,30.49c2.22-8.508-8.508-15.478-14.427-30.49-24.415-.954-171.645,0-171.645,0s-15.537,23.461-18.5,25.311c8.508,4.809,46.61-.311,65.477-25.311C694.163,219.18,749.652,218.655,749.652,218.655Z" transform="translate(-77.72 -37)" fill="#fff"/></g><g transform="translate(541.353 70.112)"><path d="M710.1,305.259s-28.29-34.72-34.72-81.012-45.007-43.078-45.007-43.078,6.43-5.787,7.715-5.787c-1.286-.643-15.431,2.572-15.431,2.572s5.787-7.073,7.072-7.073c-1.286-.643-36.648-1.286-50.793,21.218s-18.646,46.293-23.789,55.294S531.358,293.685,523,300.758c5.144,3.215,32.791-3.858,50.15-24.432,30.862,1.286,84.87,1.286,84.87,1.286S685.668,312.331,710.1,305.259Z" transform="translate(-523 -170.667)" fill="#2f2745" stroke="#000" stroke-linecap="round" stroke-linejoin="round" stroke-width="4"/><path d="M638.941,261.2s4.5-31.5,25.075-30.219,27,29.576,25.075,44.364-5.787,23.789-5.787,23.789H602.293s-9.644-19.289-8.358-41.792,17.36-22.5,19.932-22.5S635.084,232.265,638.941,261.2Z" transform="translate(-548.285 -192.187)" fill="#fcf8e3" stroke="#000" stroke-linecap="round" stroke-linejoin="round" stroke-width="4"/><ellipse cx="5.138" cy="6.839" rx="5.138" ry="6.839" transform="translate(59.164 64.429)"/><ellipse cx="2.038" cy="3.431" rx="2.038" ry="3.431" transform="translate(60.966 68.673)" fill="#fff"/><ellipse cx="5.053" cy="7.161" rx="5.053" ry="7.161" transform="translate(113.342 60.571)"/><ellipse cx="1.856" cy="3.507" rx="1.856" ry="3.507" transform="translate(114.451 65.335)" fill="#fff"/><path d="M631.065,316.132s14.026,8.289,21.392,7.529,21.481-10.811,21.481-10.811" transform="translate(-561.584 -221.433)" fill="#d7be89" stroke="#000" stroke-linecap="round" stroke-linejoin="round" stroke-width="3"/><path d="M673.724,310.669s-17.134-5.1-22.8-4.521-19.54,4.879-22.2,6.871c3.751,3.049,21.608,4.071,23.876,3.837S670.441,312.153,673.724,310.669Z" transform="translate(-560.749 -219.023)" fill="#d7be89" stroke="#000" stroke-linecap="round" stroke-linejoin="round" stroke-width="3"/><path d="M657.859,217.859s11.573-1.929,12.216-5.787S663.646,205,658.5,205s-13.5,3.215-13.5,6.43S652.715,217.859,657.859,217.859Z" transform="translate(-566.56 -182.925)" fill="#3c3a71" opacity="0.48"/><ellipse cx="5.144" cy="2.572" rx="5.144" ry="2.572" transform="translate(85.513 12.43)" fill="#3c3a71" opacity="0.48"/></g><g transform="matrix(1, 0, 0, 1, 0, 1)" filter="url(#ah)"><path d="M1141.1,218.655s-18.13,31.727-51.889,36.728c-4.376-3.126-10-3.126-9.378-10s11.878-15.315,13.754-26.725C1111.712,217.872,1141.1,218.655,1141.1,218.655Z" transform="translate(61 -39.19)" fill="#fff"/></g><g transform="translate(1155.095 -21.384)"><path d="M1178.558,312.024s-15.969,23.426-40.1,29.1c-1.293-2.587,14.578-32.094,18.109-42.685,3.557-10.671,12.935-28.457,12.935-28.457s7.761-66.615,45.272-78.9,39.452-10.348,43.979-13.582c0,1.94-.647,5.174-1.941,6.467,1.294.647,5.821-1.293,5.821-1.293s0,4.527-1.293,5.821c3.88,1.94,19.4,7.761,24.576,23.93s10.995,45.272,10.348,49.153c3.234,0,20.7-11.641,20.7-11.641l9.055-3.234,5.821,10.995s-20.7,43.979-32.337,55.62C1283.978,313.317,1178.558,312.024,1178.558,312.024Z" transform="translate(-1138.385 -115.089)" fill="#2f2745" stroke="#000" stroke-linecap="round" stroke-linejoin="round" stroke-width="4"/><path d="M1210.089,326.866s-5.809-68.225,14.875-94.425c19.4-24.576,36.218-.647,36.218-.647s11.641-13.582,23.93-9.055,20.7,16.169,23.283,54.327,1.617,50.77,1.617,50.77" transform="translate(-1163.449 -130.578)" fill="#fcf8e3" stroke="#000" stroke-linecap="round" stroke-linejoin="round" stroke-width="4"/><g transform="translate(67.337 106.875)"><path d="M1250.5,293.5s14.875,10.995,23.283,10.995,25.519-9.708,25.519-9.708" transform="translate(-1245.326 -262.941)" fill="#d7be89" stroke="#000" stroke-linecap="round" stroke-linejoin="round" stroke-width="3"/><ellipse cx="7.923" cy="7.923" rx="7.923" ry="7.923"/><ellipse cx="2.91" cy="3.88" rx="2.91" ry="3.88" transform="translate(8.084 2.425)" fill="#fff"/><ellipse cx="7.923" cy="7.923" rx="7.923" ry="7.923" transform="translate(44.626)"/><ellipse cx="2.91" cy="3.88" rx="2.91" ry="3.88" transform="translate(52.71 2.425)" fill="#fff"/><path d="M1299.093,291.761S1280.338,284,1273.87,284s-22.636,3.234-25.87,5.174c3.881,3.88,23.93,7.114,26.517,7.114S1295.213,293.054,1299.093,291.761Z" transform="translate(-1244.443 -259.585)" fill="#d7be89" stroke="#000" stroke-linecap="round" stroke-linejoin="round" stroke-width="3"/></g><path d="M1176.869,354.821S1179.456,349,1181.4,349s2.587,1.294,1.94,3.234-3.234,9.7-4.527,10.348-3.234.647-3.88-.647S1176.222,356.761,1176.869,354.821Z" transform="translate(-1151.248 -175.671)" fill="#3c3a71" opacity="0.7"/><path d="M1263.734,206.823s6.468-1.294,6.468,1.293-2.587,2.587-3.881,2.587-5.821.647-6.468-.647,0-1.94.647-2.587S1263.734,206.823,1263.734,206.823Z" transform="translate(-1181.199 -125.333)" fill="#3c3a71" opacity="0.7"/><path d="M1322.88,209s2.587,0,2.587,1.294-2.587,1.94-3.88,1.94-2.587-.647-2.587-1.294S1320.293,209,1322.88,209Z" transform="translate(-1202.187 -126.216)" fill="#3c3a71" opacity="0.7"/><path d="M1419.881,278.174s3.88,0,3.88-1.94-1.293-3.234-3.88-3.234-3.88,1.293-3.88,2.587S1417.94,278.174,1419.881,278.174Z" transform="translate(-1236.453 -148.824)" fill="#3c3a71" opacity="0.7"/><path d="M1229.174,331.343s5.821-1.294,5.821-10.995S1231.761,310,1230.468,310,1224,312.587,1224,320.348,1225.94,331.343,1229.174,331.343Z" transform="translate(-1168.628 -161.894)" fill="#fff" opacity="0.7"/><ellipse cx="2.587" cy="2.587" rx="2.587" ry="2.587" transform="translate(57.312 176.562)" fill="#fff" opacity="0.7"/><path d="M1353,214.288s25.87-10.348,29.75-12.288c2.587,2.587,18.756,47.213,19.4,49.153-1.293,1.94-27.81,11.641-28.457,11.641C1372.4,262.148,1353.647,214.935,1353,214.288Z" transform="translate(-1214.198 -123.743)" fill="#fff" stroke="#000" stroke-miterlimit="10" stroke-width="3"/><ellipse cx="5.174" cy="5.174" rx="5.174" ry="5.174" transform="translate(153.798 91.198)" fill="#fff" stroke="#000" stroke-miterlimit="10" stroke-width="2"/><ellipse cx="5.174" cy="5.174" rx="5.174" ry="5.174" transform="translate(165.055 115.761)" fill="#fff" stroke="#000" stroke-miterlimit="10" stroke-width="2"/><path d="M1382.906,244.286l4.551,9.93,5.967-9.058Z" transform="translate(-1224.762 -138.681)" fill="#fff" stroke="#000" stroke-miterlimit="10" stroke-width="2"/><path d="M1420.325,294.826a16.849,16.849,0,0,0,2.855-15.2c-2.075-7.261-4.934-10.085-7.012-10.535-3.313-.717-8.409.417-11.268,2.236l-9.421,5.995a.746.746,0,0,0,.054,1.292,37.575,37.575,0,0,0,5.982,2.629c3.557.97,11.641,1.94,13.582,3.88A17.025,17.025,0,0,1,1420.325,294.826Z" transform="translate(-1229.081 -147.367)" fill="#362e4c" stroke="#000" stroke-linecap="round" stroke-linejoin="round" stroke-width="4"/><path d="M1200.5,382.851l1.617-4.851.646,3.88" transform="translate(-1160.327 -185.916)" fill="#2f2745" stroke="#000" stroke-linecap="round" stroke-miterlimit="10" stroke-width="4"/><path d="M1289.172,112.691l1.94-26.517s.647-5.174-2.587-5.174-11.641,1.294-11.641,1.294-2.587,0-1.94,5.174,4.527,28.457,4.527,28.457,1.293,3.88,4.527,3.88,5.174-2.587,5.174-3.234Z" transform="translate(-1056.587 -18.589)" fill="#cfabbb" stroke="#000" stroke-miterlimit="10" stroke-width="2"/><ellipse cx="9.201" cy="7.73" rx="9.201" ry="7.73" transform="matrix(0.898, -0.441, 0.441, 0.898, 216.067, 109.329)" fill="#cfabbb" stroke="#000" stroke-miterlimit="10" stroke-width="2"/></g><g transform="translate(1533.038 633.558) rotate(1)"><path d="M152.017,58.178s1.516-12.885,0-20.464S133.827,12.7,92.14,3.607,42.874,5.122,39.084,8.154s-28.044,25.012-37.9,43.2c-3.032,7.579.7,18.1.7,18.1L41.358,29.377l25.77-23.5s37.139-2.274,66.7,29.56c3.79,4.548,0,31.076,0,31.076l17.844.621Z" transform="translate(21.172 0)"/><path d="M33,35.731S63.313.108,67.86.108,50.427-1.408,40.574,6.929,10.257,41.037,10.257,41.037,3.435,48.616.4,56.2,12.425,67.3,12.425,67.3Z" transform="translate(20.537 2.159)" fill="#36355f" stroke="#000" stroke-linecap="round" stroke-linejoin="round" stroke-width="4"/><path d="M30.218,0S18.091.758,7.48,18.949.658,46.235.658,46.235L2.376,47.42,32.693,3.3Z" transform="translate(21.04 37.132)" fill="#302b52" stroke="#000" stroke-linecap="round" stroke-linejoin="round" stroke-width="4"/><path d="M0,112.933S43.2,16.675,74.278,5.306c12.127-3.79,46.993-3.79,51.54-5.306.758,2.274-.758,5.306-.758,5.306s13.643,5.306,15.159,5.306a21.8,21.8,0,0,1-4.548,3.032s33.35,14.4,12.885,102.322-19.707,90.953-19.707,90.953,0,21.98-15.159,28.044-110.66,3.79-110.66,3.79Z" transform="translate(0 18.258)" fill="#2f2745" stroke="#000" stroke-linecap="round" stroke-linejoin="round" stroke-width="4"/><path d="M55.33,220.773s-5.306-9.1-2.274-26.528c4.548-15.159,44.719-59.12,44.719-59.12l-17.433,5.306S124.3,56.3,119,22.192c-1.516-14.4-15.917-13.643-19.706-12.127S77.31,21.434,73.521,25.224C72,23.708,75.794,4.759,69.731.969S52.3,5.517,49.266,8.549,18.191,60.089,15.159,65.395,0,97.986,0,97.986l1.516,124.3Z" transform="translate(3.032 31.689)" fill="#fcf8e3" stroke="#000" stroke-linecap="round" stroke-linejoin="round" stroke-width="4"/><path d="M56.088,15.421S24.254,4.206,19.706,0c0,0-3.032,18.224-18.191,7.009C0,15.421,0,30.841,0,30.841S46.235,29.439,56.088,15.421Z" transform="translate(5.648 241.506)" fill="#d5c085" stroke="#000" stroke-linecap="round" stroke-linejoin="round" stroke-width="4"/><path d="M73.521,0S41.687,25.012,31.834,32.591,2.274,50.782,0,53.056c2.274,3.032,33.349,9.853,56.846,3.032S92.469,37.139,94.743,28.8" transform="translate(27.286 166.185)" fill="#2f2745" stroke="#000" stroke-linecap="round" stroke-linejoin="round" stroke-width="4"/><path d="M37.441,1.641S24.071-7.272,8.317,16.45C-1.556,31.316-1.645,57.887,2.9,66.224c3,5.507,5.306,9.1,9.527,10.453,6.652,2.14,26.528-2.274,34.107-28.8S48.81,7.7,37.441,1.641Z" transform="translate(121.78 74.57)" fill="#28203e" stroke="#000" stroke-linecap="round" stroke-linejoin="round" stroke-width="3"/><path d="M24.8.491S10.4-4.814,2.819,19.44,5.093,48.242,7.367,49,24.8,47.484,29.347,30.809,33.137,3.523,24.8.491Z" transform="translate(132.526 88.983)" fill="#34315b" stroke="#000" stroke-linecap="round" stroke-linejoin="round" stroke-width="3"/><path d="M27.286,110.66S46.992,61.393,44.718,34.865C42.445,23.5,28.8,11.369,0,0,0,0,39.413,9.1,55.33,28.044S43.2,112.933,41.687,115.207a7.492,7.492,0,0,1-9.1,3.032C28.044,116.723,27.286,112.176,27.286,110.66Z" transform="translate(114.123 6.101)" fill="#1e1b49" stroke="#000" stroke-linecap="round" stroke-linejoin="round" stroke-width="4"/><path d="M4.087,0A7.83,7.83,0,0,0,.3,4.548c-.758,3.032,0,6.064,1.516,6.064S5.6,8.337,6.361,6.064,7.119.758,4.087,0Z" transform="translate(148.691 106.907)"/><ellipse cx="10.232" cy="6.064" rx="10.232" ry="6.064" transform="translate(42.689 64.766) rotate(-60)"/><ellipse cx="4.456" cy="2.659" rx="4.456" ry="2.659" transform="matrix(0.559, -0.829, 0.829, 0.559, 52.001, 59.181)" fill="#fff"/><ellipse cx="11.524" cy="7.159" rx="11.524" ry="7.159" transform="matrix(0.599, -0.801, 0.801, 0.599, 85.775, 79.092)"/><ellipse cx="4.753" cy="3.072" rx="4.753" ry="3.072" transform="matrix(0.364, -0.931, 0.931, 0.364, 98.802, 75.597)" fill="#fff"/><path d="M0,0S8.248,10.889,12,11.727s17.995-.838,22.493-2.513S0,0,0,0Z" transform="translate(35.623 82.812)" fill="#dbc284" stroke="#000" stroke-linecap="round" stroke-linejoin="round" stroke-width="4"/><path d="M56.088,18.949s-14.4-12.885-18.948-14.4S6.822.758,0,0C2.274,3.79,18.191,12.127,25.012,14.4S49.266,19.706,56.088,18.949Z" transform="translate(21.222 72.958)" fill="#dbc284" stroke="#000" stroke-linecap="round" stroke-linejoin="round" stroke-width="4"/><path d="M9.069,6.063S7.553,0,3.764,0-.784,6.063.732,9.1s3.79,4.548,6.063,4.548S9.827,7.579,9.069,6.063Z" transform="translate(60.661 233.642)" fill="#3c3a71" opacity="0.7"/><path d="M11.439,10.472S26.775-2.575,29.807.457s-6.821,14.4-12.885,18.949S1.7,25.6.215,24.018,5.2,15.939,11.439,10.472Z" transform="translate(69.483 180.129)" fill="#3c3a71" opacity="0.7"/><path d="M.819,9.95S-1.455.855,1.577.1,8.4,3.129,8.4,7.676s-1.516,9.1-3.032,10.611S.819,19.8.819,17.53,1.577,12.982.819,9.95Z" transform="translate(128.032 49.365)" fill="#3c3a71" opacity="0.7"/><path d="M20.922,22.852s6.063-6.822,6.822-13.643S26.228-.644,21.68.114,8.037,11.483,5.763,15.273s-9.1,12.885-3.79,18.191S18.648,25.126,20.922,22.852Z" transform="translate(60.178 117.563)" fill="#fff" opacity="0.7"/><ellipse cx="3.411" cy="2.653" rx="3.411" ry="2.653" transform="translate(56.088 163.154)" fill="#fff" opacity="0.7"/></g><path d="M-150.639,74.9V264.973h2034.3V149.461S289.649-4.43-150.639,74.9Z" transform="translate(136.335 815.027)" fill="url(#aj)"/><path d="M-97.76,932.51-4.91,884.3s414.251-39.282,914.208,0c269.62,17.856,707.976,32.14,1008.843,73.208s120.526,292.832,120.526,292.832" fill="none" stroke="#000" stroke-width="5"/><path d="M387.007,866.948C359.944,891.5,212.63,1053.376,212.63,1053.376l1327.5,25.993-5.3-156.517-313.468-23.467L844.18,878.254Z" fill="rgba(176,176,176,0.26)"/><g transform="translate(1222.838 725.823)"><path d="M220.875,813.652s-30.075-2.934-35.943,1.467c2.934,2.934,11,5.135,11,5.135s-10.269,6.6-15.4,7.335c.734.734,16.871,0,19.805,2.2s-2.2,8.8-2.2,8.8,47.679,1.467,62.35-8.8-38.877-16.871-38.877-16.871Z" transform="translate(-102.005 -580.473)" fill="#dac68a" stroke="#000" stroke-linecap="round" stroke-linejoin="round" stroke-width="4"/><path d="M338.7,788.7s-25.662-3.644-30.855-.093c2.4,2.625,9.235,4.813,9.235,4.813s-9.048,5.271-13.476,5.707c.6.656,14.458.634,16.889,2.63s-2.216,7.46-2.216,7.46,40.8,3.049,53.759-5.2S339.354,788.1,339.354,788.1Z" transform="translate(-303.603 -573.641)" fill="#dac68a" stroke="#000" stroke-linecap="round" stroke-linejoin="round" stroke-width="4"/><path d="M203.729,496.113s50.613,3.668,74.82,62.35,38.877,134.235,0,179.714c-16.871,5.135-63.45-3.3-77.387-8.436s-29.341-7.335-38.143-10.269-19.805-9.536-19.805-9.536,22.739-38.877,19.805-111.5c-2.2-38.143,2.934-81.422,25.673-86.556,0-1.467-5.135-3.668-5.135-3.668s11-5.868,20.539-4.4C204.829,503.082,203.729,496.113,203.729,496.113Z" transform="translate(-114.118 -496.113)" fill="#2f2745" stroke="#000" stroke-linecap="round" stroke-linejoin="round" stroke-width="4"/><path d="M204.034,741.1l18.7-1.1A75.544,75.544,0,0,1,200,759.072C200,746.6,202.934,751.736,204.034,741.1Z" transform="translate(-75.996 -561.102)" fill="#201b30"/><path d="M236.849,556.254s1.959-17.566,10.027-16.832,8.069,13.2,8.069,13.2,7.335-15.4,22.006-13.2,23.473,18.338,30.808,38.143,17.6,61.616,5.135,110.029-24.94,60.883-24.94,60.883-23.473-13.2-31.542-13.937-26.095-3.9-29.552-5.986-9.325-6.484-9.325-6.484,10.269-28.608,13.2-44.745S236.849,556.254,236.849,556.254Z" transform="translate(-184.855 -507.596)" fill="#fcf8e3" stroke="#000" stroke-linecap="round" stroke-linejoin="round" stroke-width="4"/><ellipse cx="11.736" cy="6.969" rx="11.736" ry="6.969" transform="translate(90.588 78.565) rotate(-98.418)"/><ellipse cx="2.934" cy="3.301" rx="2.934" ry="3.301" transform="translate(96.864 60.066)" fill="#fff"/><ellipse cx="7.726" cy="3.664" rx="7.726" ry="3.664" transform="translate(53.996 69.976) rotate(-98.418)"/><ellipse cx="1.543" cy="1.736" rx="1.543" ry="1.736" transform="translate(57.03 56.981)" fill="#fff"/><path d="M330.643,625.168s-10.269,5.135-16.871,5.135-21.272-7.335-21.272-7.335l17.6-1.467Z" transform="translate(-251.751 -529.525)" fill="#d7be89" stroke="#000" stroke-linecap="round" stroke-linejoin="round" stroke-width="3"/><path d="M331.926,620.671s-14.671-4.4-23.473-8.069-25.673,2.934-26.407,4.4,7.335,5.135,17.6,5.868S328.992,622.138,331.926,620.671Z" transform="translate(-245.332 -526.863)" fill="#d7be89" stroke="#000" stroke-linecap="round" stroke-linejoin="round" stroke-width="3"/><path d="M253.847,643.5s-6.6,40.344-51.347,65.284c0,0,9.536,7.335,60.149,5.135" transform="translate(-117.739 -535.388)" fill="#2f2745" stroke="#000" stroke-linecap="round" stroke-linejoin="round" stroke-width="4"/><path d="M187.13,631s10.519,120.751-41.811,142.3a117.216,117.216,0,0,0,29.341,0S217.236,732.992,187.13,631Z" transform="translate(-11.046 -532.057)" fill="#201b30"/><path d="M248.667,658.207s3.941-7.9,9.795-11.045,9.4-2.19,10.354,2.168-5.293,16.352-7.877,19.76-8.294,12.814-14.972,9.961S247.444,661.069,248.667,658.207Z" transform="translate(-153.983 -535.871)" fill="#fff" opacity="0.7"/><ellipse cx="3.301" cy="2.567" rx="3.301" ry="2.567" transform="translate(82.193 149.557)" fill="#fff" opacity="0.7"/><path d="M194.577,600.972s-3.089-11.1-6.56-11.61-4.97,1.63-4.326,5.272,3.22,18.209,5.363,19.708,5.614,2.012,7.113-.13S195.221,604.614,194.577,600.972Z" transform="translate(-37.831 -520.941)" fill="#3c3a71" opacity="0.7"/><path d="M204.818,568.525s-2.7-5.21-4.48-5.1-2.308,1.331-1.608,3.079,3.5,8.743,4.728,9.267,3.008.418,3.533-.806S205.519,570.274,204.818,568.525Z" transform="translate(-59.183 -514.048)" fill="#3c3a71" opacity="0.7"/></g><g transform="translate(445.072 725.823)"><path d="M1298.556,861.065s-29.68,22.485-66.556,14.391c2.7-4.5,53.964-35.976,61.16-79.148s12.592-93.539,46.769-116.923c17.988-11.692,32.379-16.189,35.976-17.089s19.787-4.5,23.385-6.3c.9,1.8-2.7,8.994-2.7,8.994s9.894.9,12.592,0c.9,2.7-4.5,7.2-4.5,7.2s36.876,5.4,41.373,70.154,16.189,101.633,53.964,134.012c-8.994,4.5-44.071-2.7-58.461-16.189-15.29,4.5-102.533.9-102.533.9Z" transform="translate(-1232 -655.1)" fill="#2f2745" stroke="#000" stroke-linecap="round" stroke-linejoin="round" stroke-width="4"/><g transform="translate(2.698)"><g clip-path="url(#ak)"><path d="M1308.246,832.5l-8.994,6.3-4.047-4.947s-8.544,48.118-50.817,54.414c-6.3.9-2.7-3.6-2.7-3.6l-15.29,3.6-.9,12.592,187.976,4.5,91.74-6.3-35.976-44.97-4.947-.45s-8.544,4.047-7.645,10.343c0,0-17.988-9.893-23.385-20.686S1308.246,832.5,1308.246,832.5Z" transform="translate(-1234.044 -672.855)" fill="#282235"/></g></g><path d="M1434.172,866.058S1460.54,738.126,1419.121,703a15.046,15.046,0,0,0-19.39-.135c-9.219,7.811-16.021,23.116-16.021,23.116S1370.219,698.1,1354.029,699s-33.278,36.876-35.077,83.645a676.959,676.959,0,0,0,2.7,88.142Z" transform="translate(-1240.704 -659.424)" fill="#fcf8e3" stroke="#000" stroke-linecap="round" stroke-linejoin="round" stroke-width="4"/><path d="M1457.36,834.3s-8.994,8.994-14.39,8.994-15.29-8.994-15.29-15.29c-.9.9-6.3,17.089-16.189,18.888-8.095.9-13.491-7.2-13.491-7.2s-.9,62.958,29.68,62.958S1458.26,843.29,1457.36,834.3Z" transform="translate(-1248.698 -672.402)" fill="#dac68a" stroke="#000" stroke-linecap="round" stroke-linejoin="round" stroke-width="4"/><path d="M1362.565,841.893s-9.893,5.4-15.29,4.5S1334.683,835.6,1335.583,832c-.9,0-8.994,9.894-16.189,8.994s-12.592-7.2-12.592-7.2-9.893,68.355,17.089,70.154S1362.565,860.781,1362.565,841.893Z" transform="translate(-1239.346 -672.805)" fill="#dac68a" stroke="#000" stroke-linecap="round" stroke-linejoin="round" stroke-width="4"/><path d="M1360.055,881.612s14.562-.613,20.858-.613S1398,882.8,1398,882.8l5.377,11.061-3.579-2.067a78.871,78.871,0,0,0-27.881-1.8c-15.29,1.8-18.6,5.549-18.6,5.549Z" transform="translate(-1244.204 -677.734)"/><path d="M1353.89,765.1s19.866,14.683,31.1,14.683,34.081-12.965,34.081-12.965" transform="translate(-1244.261 -666.075)" fill="#d7be89" stroke="#000" stroke-linecap="round" stroke-linejoin="round" stroke-width="3"/><ellipse cx="9.8" cy="9.567" rx="9.8" ry="9.567" transform="translate(101.82 61.813)"/><ellipse cx="3.887" cy="4.8" rx="3.887" ry="4.8" transform="translate(112.617 64.152)" fill="#fff"/><ellipse cx="10.017" cy="10.017" rx="10.017" ry="10.017" transform="translate(162.318 62.712)"/><ellipse cx="3.68" cy="4.906" rx="3.68" ry="4.906" transform="translate(173.438 66.678)" fill="#fff"/><path d="M1419.725,766.344s-25.049-10.365-33.687-10.365-30.231,4.319-34.55,6.91c5.182,5.182,31.958,9.5,35.414,9.5S1414.543,768.072,1419.725,766.344Z" transform="translate(-1244.02 -665.157)" fill="#d7be89" stroke="#000" stroke-linecap="round" stroke-linejoin="round" stroke-width="3"/><path d="M1336.5,803.9s30.58-5.4,41.373-5.4,45.87,8.994,45.87,8.994" transform="translate(-1242.512 -669.435)" fill="none" stroke="#000" stroke-linecap="round" stroke-linejoin="round" stroke-width="3"/><path d="M1398,858.523s17.988,11.692,26.982,10.793,30.388-15.061,30.388-15.061,1.531,45.909-24.991,51.037S1398,858.523,1398,858.523Z" transform="translate(-1248.698 -675.043)" fill="#ceb473" opacity="0.61"/><path d="M1457.779,834.1s-8.994,8.994-14.391,8.994-15.29-8.994-15.29-15.29c-.9.9-6.3,17.089-16.189,18.888-8.095.9-13.491-7.2-13.491-7.2s-.9,62.959,29.68,62.959S1458.678,843.091,1457.779,834.1Z" transform="translate(-1248.74 -672.382)" fill="none" stroke="#000" stroke-linecap="round" stroke-linejoin="round" stroke-width="4"/><g transform="translate(66.061 159.016)" opacity="0.61"><g clip-path="url(#al)"><path d="M1306.988,858.6c.282.111,10.8,14.4,21.586,14.391S1360.053,855,1360.053,855s-6.3,49.468-34.178,49.468C1304.29,904.467,1306.988,858.6,1306.988,858.6Z" transform="translate(-1305.593 -834.135)" fill="#ceb473"/></g></g><path d="M1378.988,806s19.787-.9,19.787,7.2-18.888,7.2-24.284,6.3S1361,815.89,1361,811.393,1378.988,806,1378.988,806Z" transform="translate(-1244.976 -670.186)" fill="#fff" opacity="0.55"/><ellipse cx="2.698" cy="2.249" rx="2.698" ry="2.249" transform="translate(106.13 118.722)" fill="#fff" opacity="0.55"/><ellipse cx="4.047" cy="2.698" rx="4.047" ry="2.698" transform="translate(169.089 124.118)" fill="#fff" opacity="0.55"/></g><path d="M210.689,867.2c-13.115,2.858-15.411,20.819,0,32.441s72.465,16.9,104.161,11.622S416.278,867.2,416.278,867.2,247.423,865.056,210.689,867.2Z" transform="translate(-33.183)" fill="rgba(109,109,109,0.18)"/><path d="M1498.232,908.905s10.774,11.871,26.622,13.984c1.057,0,4.226,14.792,9.509,25.357s38.036,25.357,58.11,26.414,65.506-9.509,73.958-26.414,0-16.9,0-16.9H1645.3s-9.509-39.092-29.583-54.94S1498.232,908.905,1498.232,908.905Z" transform="translate(20)" fill="rgba(109,109,109,0.18)"/></g></svg>