<svg xmlns="http://www.w3.org/2000/svg" width="39.492" height="39.492" viewBox="0 0 39.492 39.492"><g transform="translate(0.75 0.75)"><path d="M61.85,315.357a9.8,9.8,0,0,0-5.566-2.08l-.277.317a13.182,13.182,0,0,1,4.932,2.515,16.146,16.146,0,0,0-5.962-1.9,16.762,16.762,0,0,0-4,.04,1.958,1.958,0,0,0-.337.04,14.876,14.876,0,0,0-4.5,1.248c-.733.337-1.169.574-1.169.574a13.363,13.363,0,0,1,5.209-2.595l-.2-.238a9.8,9.8,0,0,0-5.566,2.08A26.524,26.524,0,0,0,41.569,326.9a7.181,7.181,0,0,0,6.041,3.01s.733-.891,1.327-1.644a6.16,6.16,0,0,1-3.466-2.337s.2.139.555.337a.278.278,0,0,0,.079.059c.059.039.119.059.178.1a11.616,11.616,0,0,0,1.446.673,16.636,16.636,0,0,0,2.911.852,13.873,13.873,0,0,0,5.13.02,13.034,13.034,0,0,0,2.872-.852,11.333,11.333,0,0,0,2.278-1.169,6.249,6.249,0,0,1-3.585,2.357c.594.753,1.307,1.6,1.307,1.6A7.24,7.24,0,0,0,64.7,326.9,26.524,26.524,0,0,0,61.85,315.357Zm-12.418,9.7a2.206,2.206,0,0,1,0-4.4,2.206,2.206,0,0,1,0,4.4Zm7.229,0a2.206,2.206,0,1,1,2.02-2.2A2.123,2.123,0,0,1,56.661,325.062Z" transform="translate(-34.371 -303.201)" fill="#fff"/><path d="M279.112,166.5h0a19,19,0,0,1-19-19h0a19,19,0,0,1,19-19h0a19,19,0,0,1,19,19h0A19,19,0,0,1,279.112,166.5Z" transform="translate(-260.116 -128.505)" fill="none" stroke="#fff" stroke-miterlimit="10" stroke-width="1.5"/></g></svg>