<svg xmlns="http://www.w3.org/2000/svg" width="39.492" height="39.492" viewBox="0 0 39.492 39.492"><g transform="translate(0.75 0.75)"><path d="M279.112,166.5h0a19,19,0,0,1-19-19h0a19,19,0,0,1,19-19h0a19,19,0,0,1,19,19h0A19,19,0,0,1,279.112,166.5Z" transform="translate(-260.116 -128.505)" fill="none" stroke="#fff" stroke-miterlimit="10" stroke-width="1.5"/><path d="M269.007,153.88a11.812,11.812,0,0,0,18.171-10.488,8.418,8.418,0,0,0,2.071-2.15,8.281,8.281,0,0,1-2.385.654,4.159,4.159,0,0,0,1.826-2.3,8.332,8.332,0,0,1-2.636,1.008,4.156,4.156,0,0,0-7.077,3.788,11.786,11.786,0,0,1-8.559-4.339A4.158,4.158,0,0,0,271.7,145.6a4.14,4.14,0,0,1-1.882-.52,4.159,4.159,0,0,0,3.331,4.125,4.157,4.157,0,0,1-1.875.07,4.154,4.154,0,0,0,3.879,2.885A8.351,8.351,0,0,1,269.007,153.88Z" transform="translate(-260.132 -128.525)" fill="#fff"/></g></svg>